<?xml version="1.0" standalone="no"?>
<!DOCTYPE svg PUBLIC "-//W3C//DTD SVG 20010904//EN"
 "http://www.w3.org/TR/2001/REC-SVG-20010904/DTD/svg10.dtd">
<svg version="1.0" xmlns="http://www.w3.org/2000/svg"
 width="4926.000000pt" height="4930.000000pt" viewBox="0 0 4926.000000 4930.000000"
 preserveAspectRatio="xMidYMid meet">
<metadata>
Created by potrace 1.15, written by Peter Selinger 2001-2017
</metadata>
<g transform="translate(0.000000,4930.000000) scale(0.100000,-0.100000)"
fill="#000000" stroke="none">
<path d="M150 48494 c0 -5 6 -18 13 -29 8 -11 58 -105 112 -210 54 -104 117
-226 140 -270 23 -44 77 -147 120 -230 134 -258 206 -397 260 -500 29 -55 87
-167 130 -250 42 -82 105 -204 140 -270 34 -66 100 -192 145 -280 105 -203
198 -382 265 -510 29 -55 87 -167 130 -250 43 -82 103 -199 135 -260 32 -60
88 -168 125 -240 37 -71 96 -185 131 -252 35 -68 93 -178 128 -245 35 -68 94
-181 131 -253 37 -71 93 -179 125 -240 32 -60 95 -182 140 -270 85 -165 170
-327 270 -520 32 -60 89 -172 129 -247 39 -76 103 -200 142 -275 40 -76 97
-187 129 -248 32 -60 90 -173 130 -250 40 -77 99 -189 130 -250 32 -60 90
-173 130 -250 99 -191 191 -369 260 -500 32 -60 92 -177 135 -260 43 -82 106
-204 140 -270 34 -66 97 -187 140 -270 43 -82 101 -195 130 -250 29 -55 83
-158 120 -230 37 -71 93 -179 125 -240 32 -60 92 -177 135 -260 43 -82 103
-199 135 -260 32 -60 88 -168 125 -240 70 -135 149 -287 259 -497 35 -68 103
-199 151 -293 48 -93 109 -210 135 -260 26 -49 85 -162 130 -250 45 -88 106
-205 135 -260 53 -102 121 -232 260 -500 43 -82 99 -190 125 -240 26 -49 85
-162 130 -250 45 -88 104 -200 130 -250 26 -49 82 -157 125 -240 43 -82 106
-204 140 -270 34 -66 97 -187 140 -270 43 -82 101 -195 130 -250 29 -55 86
-165 127 -245 142 -274 221 -425 273 -525 56 -107 136 -260 260 -500 43 -82
103 -199 135 -260 32 -60 90 -173 130 -250 40 -77 96 -185 125 -240 29 -55 90
-172 135 -260 46 -88 109 -209 140 -270 70 -134 162 -311 265 -510 43 -82 99
-190 125 -240 26 -49 82 -157 125 -240 43 -82 103 -199 135 -260 32 -60 90
-173 130 -250 156 -300 205 -394 260 -500 32 -60 92 -177 135 -260 43 -82 101
-195 130 -250 29 -55 92 -176 140 -270 48 -93 113 -219 145 -280 78 -150 174
-334 255 -490 67 -129 156 -301 265 -510 32 -60 92 -177 135 -260 43 -82 99
-190 125 -240 26 -49 82 -157 125 -240 43 -82 103 -199 135 -260 32 -60 90
-173 130 -250 40 -77 103 -198 140 -270 37 -71 98 -188 135 -260 37 -71 96
-185 131 -252 35 -68 93 -178 128 -245 35 -68 94 -181 131 -253 37 -71 96
-184 130 -250 34 -66 95 -183 135 -260 40 -77 96 -185 125 -240 29 -55 87
-167 130 -250 43 -82 101 -195 130 -250 29 -55 90 -172 135 -260 46 -88 108
-209 140 -270 108 -209 198 -380 265 -510 73 -141 159 -306 259 -497 35 -68
99 -190 141 -273 43 -82 101 -195 130 -250 55 -105 130 -250 260 -500 43 -82
103 -199 135 -260 32 -60 95 -182 140 -270 46 -88 104 -200 130 -250 26 -49
82 -157 125 -240 42 -82 106 -205 141 -273 109 -208 343 -657 519 -997 37 -71
91 -175 120 -230 29 -55 87 -167 130 -250 43 -82 106 -204 140 -270 34 -66 97
-187 140 -270 104 -201 196 -377 265 -510 32 -60 92 -177 135 -260 43 -82 99
-190 125 -240 26 -49 82 -157 125 -240 107 -207 197 -380 265 -510 32 -60 92
-177 135 -260 43 -82 99 -190 125 -240 26 -49 87 -166 135 -260 93 -181 181
-350 275 -530 32 -60 92 -177 135 -260 43 -82 99 -190 125 -240 26 -49 82
-157 125 -240 42 -82 106 -205 141 -273 96 -182 184 -352 259 -497 37 -71 93
-179 125 -240 32 -60 92 -177 135 -260 43 -82 103 -199 135 -260 32 -60 95
-182 140 -270 45 -88 104 -200 130 -250 26 -49 82 -157 125 -240 43 -82 101
-195 130 -250 29 -55 92 -176 140 -270 48 -93 104 -201 125 -240 20 -38 79
-151 130 -250 51 -99 114 -220 140 -270 26 -49 80 -153 120 -230 40 -77 98
-189 130 -250 32 -60 95 -182 140 -270 76 -148 128 -249 280 -540 32 -60 92
-177 135 -260 43 -82 99 -190 125 -240 26 -49 82 -157 125 -240 43 -82 103
-199 135 -260 32 -60 88 -168 125 -240 37 -71 96 -185 131 -252 35 -68 93
-178 128 -245 35 -68 94 -181 131 -253 37 -71 96 -184 130 -250 34 -66 102
-196 150 -290 48 -93 111 -215 140 -270 53 -102 120 -230 260 -500 43 -82 99
-190 125 -240 26 -49 85 -162 130 -250 45 -88 106 -205 135 -260 54 -103 126
-241 260 -500 43 -82 97 -186 120 -230 23 -44 86 -165 140 -270 54 -104 119
-230 145 -280 26 -49 85 -162 130 -250 45 -88 104 -200 130 -250 26 -49 82
-157 125 -240 107 -207 197 -380 265 -510 32 -60 92 -177 135 -260 43 -82 99
-190 125 -240 26 -49 82 -157 125 -240 43 -82 101 -195 130 -250 29 -55 92
-176 140 -270 98 -191 190 -367 275 -530 32 -60 84 -161 116 -222 32 -62 62
-113 65 -113 4 0 24 33 44 73 21 39 52 99 70 132 18 33 63 119 100 190 37 72
84 162 105 200 58 109 133 251 188 355 137 262 199 381 305 580 21 41 66 127
99 190 33 63 77 147 98 185 42 80 121 229 205 390 32 61 74 142 95 180 20 39
66 124 100 190 35 66 100 190 145 275 45 85 113 214 150 285 37 72 105 200
150 285 45 85 110 209 145 275 34 66 80 152 100 190 37 69 103 195 203 385 27
52 68 131 92 175 23 44 70 132 103 195 33 63 78 149 99 190 85 160 222 422
308 585 32 61 74 142 95 180 44 83 117 221 190 360 55 104 116 221 192 365 25
47 76 144 113 215 37 72 80 153 95 180 15 28 60 113 100 190 40 77 110 210
155 295 45 85 110 209 145 275 34 66 79 152 100 190 61 115 135 254 188 355
137 262 199 381 305 580 21 41 66 127 99 190 34 63 83 158 111 210 27 52 66
127 87 165 20 39 65 124 100 190 34 66 79 152 100 190 20 39 65 124 100 190
34 66 79 152 100 190 20 39 62 117 92 175 134 255 176 334 253 480 45 85 110
209 145 275 34 66 80 152 100 190 36 67 95 180 203 385 27 52 71 136 97 185
48 90 97 184 205 390 32 61 74 142 95 180 21 39 63 118 94 178 31 59 81 155
112 215 31 59 73 139 94 177 21 39 63 118 94 178 31 59 81 155 112 215 31 59
73 139 94 177 63 119 135 255 200 380 34 66 79 152 100 190 21 39 61 115 90
170 175 331 218 412 295 560 126 241 169 323 205 390 21 39 66 124 100 190 35
66 79 152 100 190 92 173 154 291 295 560 32 61 74 142 95 180 21 39 63 118
94 178 31 59 81 155 112 215 31 59 73 139 94 177 21 39 68 129 105 200 37 72
88 168 113 215 25 47 62 117 82 155 21 39 66 124 100 190 35 66 100 190 145
275 45 85 115 218 155 295 40 77 85 163 100 190 15 28 56 104 90 170 35 66 83
158 108 205 79 151 138 262 202 385 35 66 79 152 100 190 92 173 154 291 295
560 32 61 74 142 95 180 21 39 63 118 94 178 31 59 81 155 112 215 31 59 73
139 94 177 21 39 63 120 95 180 32 61 77 146 100 190 23 44 71 134 105 200 35
66 80 152 100 190 21 39 63 120 95 180 32 61 74 142 95 180 21 39 68 129 105
200 37 72 80 153 95 180 26 48 72 135 196 373 65 123 140 266 194 367 21 39
63 120 95 180 110 209 189 360 313 595 48 92 105 200 200 380 33 63 78 149 99
190 22 41 66 125 98 185 32 61 74 142 95 180 20 39 65 124 100 190 70 135 144
275 200 380 21 39 66 124 100 190 34 66 82 156 105 200 102 192 136 257 195
370 34 66 77 147 95 180 18 33 58 110 90 170 84 161 163 310 205 390 21 39 62
117 92 175 31 58 81 155 113 215 32 61 74 142 95 180 21 39 63 120 95 180 32
61 77 146 100 190 85 162 170 323 306 583 28 53 73 138 99 187 92 175 138 261
195 370 32 61 74 142 95 180 21 39 68 129 105 200 37 72 105 200 150 285 45
85 113 214 150 285 37 72 105 200 150 285 45 85 110 209 145 275 34 66 80 152
100 190 37 69 103 195 203 385 27 52 68 131 92 175 23 44 70 132 103 195 33
63 78 149 99 190 48 91 138 261 206 390 27 52 70 133 95 180 163 309 264 502
402 765 34 66 70 134 80 150 10 17 57 107 105 200 48 94 95 184 105 200 9 17
50 93 90 170 75 144 135 259 200 380 21 39 63 118 94 178 31 59 81 155 112
215 31 59 73 139 94 177 21 39 63 118 94 178 31 59 81 155 112 215 31 59 73
139 94 177 21 39 63 118 94 178 31 59 81 155 112 215 31 59 73 139 94 177 21
39 63 120 95 180 103 196 156 298 205 390 91 173 138 261 195 370 32 61 77
146 100 190 23 44 71 134 105 200 64 123 128 244 185 350 18 33 63 119 100
190 37 72 84 162 105 200 37 68 102 192 203 385 27 52 68 131 92 175 23 44 70
132 103 195 33 63 78 149 99 190 85 160 222 422 308 585 32 61 74 142 95 180
44 83 117 221 190 360 57 109 123 233 192 365 25 47 71 135 103 195 32 61 81
155 110 210 29 55 75 143 103 195 27 52 65 124 84 160 19 36 63 119 98 185
140 267 165 314 213 405 27 52 67 127 87 165 21 39 63 118 94 178 31 59 81
155 112 215 31 59 73 139 94 177 21 39 63 118 94 178 53 101 105 200 219 417
27 52 64 122 82 155 18 33 63 119 100 190 37 72 87 166 110 210 24 44 65 123
92 175 79 151 153 290 188 355 18 33 65 123 105 200 40 77 110 210 155 295 77
146 119 226 253 480 30 58 72 137 92 175 21 39 63 120 95 180 82 157 161 307
213 405 70 132 146 276 290 550 33 63 78 149 99 190 22 41 64 120 93 175 29
55 75 142 102 193 27 52 48 95 46 97 -3 3 -2477 11 -11498 40 -10919 35
-14431 46 -18930 60 -2610 8 -6709 22 -9110 30 -2401 9 -4815 15 -5365 15
-550 0 -1678 3 -2507 7 -941 4 -1508 3 -1508 -3z m8850 -2114 c1455 -5 3808
-15 5230 -21 3048 -12 4296 -16 9035 -30 1953 -5 4812 -14 6355 -19 5689 -19
9274 -29 12403 -36 3168 -7 3207 -7 3207 -27 0 -10 -29 -73 -65 -139 -36 -66
-67 -125 -68 -131 -1 -5 -35 -70 -74 -144 -40 -73 -93 -175 -117 -226 -25 -50
-66 -128 -91 -172 -25 -44 -48 -88 -52 -98 -3 -10 -20 -46 -39 -80 -86 -160
-136 -256 -328 -632 -73 -143 -97 -186 -106 -195 -3 -3 -19 -34 -34 -70 -16
-36 -39 -83 -51 -105 -53 -94 -194 -363 -315 -600 -196 -383 -270 -525 -280
-535 -10 -10 -60 -116 -60 -128 0 -6 -5 -12 -12 -12 -6 0 -8 -3 -5 -7 4 -3 3
-11 -2 -17 -8 -10 -53 -92 -124 -226 -16 -30 -36 -73 -45 -95 -8 -22 -24 -52
-34 -67 -11 -15 -59 -105 -107 -200 -97 -189 -124 -240 -163 -308 -14 -25 -29
-55 -32 -67 -6 -18 -37 -78 -124 -238 -9 -16 -23 -38 -30 -47 -8 -9 -11 -22
-7 -27 3 -6 1 -11 -4 -11 -6 0 -11 -8 -11 -17 0 -10 -16 -43 -35 -73 -19 -30
-35 -60 -35 -67 0 -7 -3 -13 -7 -13 -5 0 -19 -24 -33 -53 -14 -28 -31 -63 -40
-76 -8 -13 -15 -29 -16 -35 -1 -6 -38 -76 -81 -156 -44 -80 -83 -155 -87 -167
-7 -22 -139 -267 -154 -287 -5 -6 -12 -23 -16 -38 -3 -15 -28 -65 -54 -110
-26 -46 -56 -101 -67 -123 -11 -22 -23 -42 -26 -45 -3 -3 -14 -27 -24 -55 -11
-27 -21 -52 -24 -55 -8 -7 -28 -42 -84 -150 -27 -52 -53 -99 -58 -105 -5 -5
-9 -15 -9 -22 0 -7 -35 -77 -79 -155 -43 -79 -82 -153 -85 -165 -4 -12 -25
-55 -48 -95 -22 -40 -75 -140 -117 -223 -42 -82 -84 -161 -93 -175 -21 -33
-98 -182 -98 -190 0 -4 -25 -53 -56 -111 -31 -57 -91 -171 -134 -254 -42 -82
-93 -180 -113 -217 -20 -38 -34 -68 -31 -68 3 0 -3 -12 -14 -27 -10 -16 -25
-41 -34 -58 -8 -16 -34 -66 -57 -110 -24 -44 -49 -91 -56 -105 -7 -14 -25 -50
-40 -80 -16 -30 -41 -78 -56 -107 -30 -54 -159 -303 -264 -508 -33 -66 -76
-147 -94 -180 -37 -66 -55 -103 -95 -185 -14 -30 -44 -86 -66 -125 -22 -38
-49 -90 -61 -115 -39 -82 -71 -144 -97 -190 -14 -25 -56 -103 -92 -175 -133
-261 -274 -531 -295 -565 -12 -19 -34 -62 -49 -95 -14 -33 -33 -73 -43 -90
-92 -166 -143 -262 -143 -273 0 -8 -8 -26 -18 -40 -21 -30 -140 -253 -142
-264 -1 -10 -102 -202 -109 -208 -3 -3 -23 -41 -44 -85 -43 -90 -56 -116 -100
-195 -17 -30 -65 -122 -107 -205 -42 -82 -92 -177 -110 -210 -49 -88 -60 -109
-60 -118 0 -5 -37 -74 -82 -155 -44 -81 -81 -153 -81 -159 0 -7 -4 -13 -9 -13
-5 0 -7 -4 -4 -8 3 -5 -1 -18 -9 -29 -8 -12 -30 -49 -48 -84 -37 -70 -96 -178
-105 -194 -4 -5 -8 -18 -9 -29 -2 -10 -12 -30 -22 -45 -10 -14 -27 -44 -38
-66 -18 -35 -38 -73 -86 -160 -6 -11 -12 -25 -13 -30 -1 -6 -40 -81 -88 -167
-47 -87 -86 -162 -86 -167 0 -5 -38 -79 -84 -163 -47 -85 -88 -166 -91 -181
-4 -14 -13 -31 -21 -38 -8 -6 -14 -15 -14 -19 0 -4 -30 -63 -67 -131 -38 -69
-70 -134 -71 -144 -2 -11 -8 -21 -13 -23 -5 -2 -9 -7 -9 -12 0 -5 -31 -64 -69
-132 -38 -68 -71 -133 -75 -145 -4 -12 -43 -87 -87 -167 -43 -80 -79 -151 -79
-159 0 -7 -4 -17 -9 -22 -5 -6 -24 -37 -41 -70 -37 -68 -101 -190 -116 -220
-6 -11 -19 -36 -28 -55 -77 -152 -111 -216 -116 -220 -4 -3 -19 -32 -34 -65
-29 -65 -36 -79 -86 -170 -19 -33 -68 -127 -110 -210 -134 -260 -216 -418
-242 -465 -29 -50 -69 -130 -89 -175 -7 -16 -37 -72 -66 -123 -47 -82 -113
-214 -113 -225 0 -3 -25 -49 -56 -103 -31 -55 -73 -135 -94 -179 -20 -44 -59
-118 -85 -165 -49 -87 -60 -109 -114 -220 -18 -36 -47 -92 -67 -125 -19 -33
-48 -89 -65 -125 -30 -66 -49 -103 -89 -175 -13 -22 -60 -112 -105 -200 -45
-88 -103 -196 -127 -241 -25 -45 -50 -96 -57 -114 -6 -19 -24 -54 -40 -79 -16
-25 -36 -62 -46 -81 -10 -19 -29 -57 -43 -85 -14 -27 -25 -53 -24 -57 1 -5 -2
-8 -8 -8 -5 0 -10 -7 -10 -15 0 -9 -11 -32 -24 -53 -12 -20 -37 -64 -53 -97
-55 -110 -170 -329 -212 -404 -22 -41 -41 -78 -41 -83 0 -6 -16 -40 -37 -76
-20 -37 -41 -76 -47 -87 -6 -11 -13 -22 -16 -25 -9 -9 -80 -155 -80 -164 0 -5
-14 -32 -31 -60 -18 -28 -74 -134 -126 -236 -52 -101 -114 -218 -138 -260 -23
-41 -46 -86 -50 -100 -4 -14 -42 -86 -83 -160 -41 -74 -75 -141 -75 -147 0 -7
-3 -13 -7 -13 -4 0 -7 -6 -7 -12 0 -12 -17 -44 -131 -248 -20 -36 -37 -70 -38
-76 -1 -9 -100 -197 -152 -289 -6 -11 -20 -40 -31 -65 -19 -43 -76 -149 -125
-235 -13 -22 -27 -50 -30 -62 -4 -12 -43 -88 -88 -169 -44 -81 -81 -152 -82
-158 -1 -6 -4 -16 -8 -21 -15 -24 -87 -161 -158 -300 -42 -82 -100 -192 -128
-243 -29 -50 -52 -96 -52 -101 0 -5 -21 -46 -47 -92 -25 -46 -91 -172 -145
-279 -55 -107 -105 -202 -112 -210 -12 -15 -16 -23 -53 -105 -9 -22 -47 -94
-83 -160 -36 -66 -72 -136 -79 -155 -8 -19 -17 -39 -21 -45 -18 -25 -111 -203
-320 -610 -42 -82 -96 -183 -119 -224 -22 -41 -41 -78 -41 -83 0 -5 -12 -30
-26 -56 -92 -163 -166 -306 -165 -319 0 -1 -38 -70 -85 -153 -46 -84 -84 -156
-84 -160 0 -5 -12 -31 -26 -57 -14 -26 -63 -120 -109 -208 -45 -88 -93 -178
-105 -200 -13 -22 -66 -126 -120 -230 -53 -105 -108 -208 -122 -230 -14 -22
-29 -51 -33 -65 -4 -14 -46 -95 -92 -180 -46 -85 -85 -157 -85 -160 -2 -14
-19 -48 -90 -178 -43 -78 -78 -146 -78 -151 0 -5 -19 -41 -41 -82 -45 -81 -90
-163 -106 -194 -5 -11 -28 -56 -50 -100 -22 -44 -62 -120 -90 -170 -28 -49
-54 -101 -58 -115 -4 -14 -22 -50 -39 -80 -41 -70 -88 -160 -157 -300 -17 -36
-52 -101 -78 -145 -25 -44 -51 -91 -57 -105 -30 -67 -78 -162 -117 -230 -23
-41 -49 -91 -57 -110 -7 -19 -40 -83 -72 -141 -32 -59 -58 -111 -58 -118 0 -6
-4 -11 -9 -11 -5 0 -17 -21 -27 -47 -10 -27 -50 -106 -89 -178 -81 -147 -80
-146 -124 -235 -17 -36 -50 -96 -71 -135 -41 -72 -61 -112 -64 -130 -1 -6 -11
-26 -22 -45 -12 -19 -39 -69 -61 -110 -22 -41 -54 -101 -71 -132 -18 -32 -30
-58 -28 -58 3 0 -14 -33 -36 -72 -23 -40 -78 -145 -123 -233 -147 -285 -221
-428 -265 -510 -39 -73 -72 -136 -270 -520 -37 -71 -96 -186 -132 -255 -36
-69 -108 -208 -161 -310 -52 -102 -116 -223 -142 -269 -26 -47 -57 -107 -69
-135 -13 -28 -60 -118 -104 -200 -45 -81 -82 -152 -82 -158 0 -5 -14 -35 -31
-66 -18 -31 -45 -82 -62 -112 -16 -30 -38 -70 -49 -87 -11 -18 -16 -33 -12
-33 4 0 -1 -9 -11 -20 -10 -11 -15 -20 -10 -20 4 0 3 -6 -3 -13 -6 -7 -27 -44
-47 -82 -20 -39 -51 -96 -70 -127 -18 -32 -37 -68 -40 -80 -4 -13 -40 -84 -80
-158 -41 -74 -78 -147 -84 -162 -6 -15 -41 -83 -77 -150 -37 -68 -90 -168
-117 -223 -27 -55 -74 -144 -104 -197 -30 -53 -56 -103 -57 -111 -1 -8 -8 -25
-17 -38 -8 -13 -26 -46 -39 -74 -14 -27 -28 -52 -31 -55 -8 -6 -82 -151 -85
-165 -1 -5 -38 -77 -83 -159 -44 -82 -83 -157 -86 -167 -3 -10 -40 -80 -82
-156 -41 -76 -81 -152 -87 -168 -6 -17 -48 -98 -92 -180 -45 -83 -85 -161 -89
-175 -4 -14 -11 -27 -14 -30 -10 -7 -151 -268 -151 -278 0 -11 -75 -156 -99
-192 -24 -36 -83 -150 -77 -150 2 0 -14 -33 -36 -73 -23 -39 -76 -139 -119
-222 -42 -82 -93 -179 -113 -215 -20 -36 -43 -81 -52 -100 -19 -40 -74 -147
-121 -235 -18 -33 -55 -105 -82 -160 -27 -55 -75 -145 -105 -200 -30 -55 -53
-101 -51 -103 2 -3 -6 -21 -19 -41 -13 -20 -67 -122 -121 -226 -54 -105 -114
-217 -132 -250 -39 -70 -123 -244 -123 -255 0 -5 -4 -10 -9 -12 -5 -1 -55 -93
-111 -203 -56 -110 -117 -225 -136 -256 -19 -31 -34 -62 -34 -68 0 -12 -95
-195 -113 -219 -5 -7 -40 -72 -77 -145 -36 -72 -106 -208 -155 -302 -49 -93
-93 -180 -99 -193 -21 -44 -35 -28 -108 123 -18 39 -35 72 -38 75 -3 3 -16 25
-29 50 -13 25 -34 64 -46 87 -13 24 -22 43 -19 43 2 0 -13 30 -33 67 -20 38
-78 149 -128 248 -51 99 -136 266 -190 370 -180 349 -331 645 -368 720 -23 47
-65 124 -115 215 -20 36 -37 70 -38 77 -1 7 -10 27 -19 45 -10 18 -27 51 -38
73 -11 22 -39 74 -62 115 -24 41 -46 86 -50 100 -4 14 -46 94 -92 179 -47 85
-86 163 -89 174 -2 10 -8 24 -13 31 -5 6 -34 58 -64 116 -30 58 -61 119 -70
135 -9 17 -31 62 -50 100 -19 39 -50 99 -69 135 -43 80 -57 107 -97 190 -18
36 -49 97 -70 135 -52 97 -53 100 -101 195 -23 47 -87 173 -142 280 -56 107
-138 267 -183 355 -45 88 -129 250 -185 360 -57 110 -140 272 -185 360 -45 88
-96 187 -113 220 -17 33 -39 78 -48 100 -9 22 -20 42 -23 45 -3 3 -28 48 -55
100 -28 52 -56 106 -63 120 -7 14 -13 28 -13 31 0 5 -71 140 -151 286 -15 29
-26 53 -24 53 4 0 -30 65 -112 214 -24 43 -43 85 -43 92 0 8 -5 14 -12 14 -6
0 -8 3 -5 6 4 4 -8 32 -25 63 -33 60 -121 229 -304 589 -62 122 -121 235 -132
250 -10 15 -26 47 -36 72 -15 39 -51 109 -152 297 -12 22 -20 44 -17 47 4 3 2
6 -4 6 -5 0 -10 6 -10 13 0 6 -17 41 -38 77 -58 101 -120 224 -117 233 1 4 -3
7 -9 7 -5 0 -7 5 -4 10 3 6 1 10 -4 10 -6 0 -11 5 -11 10 0 13 -21 56 -79 160
-23 41 -55 104 -71 140 -17 36 -39 81 -50 100 -12 19 -56 105 -99 190 -138
273 -241 472 -309 600 -37 69 -67 127 -68 130 -3 14 -25 58 -96 189 -43 79
-78 148 -78 154 0 5 -17 42 -39 81 -77 142 -114 211 -121 226 -41 86 -107 217
-135 265 -19 33 -39 75 -45 93 -7 18 -32 70 -57 115 -87 156 -113 206 -113
216 0 5 -36 76 -81 158 -44 81 -82 155 -84 163 -2 9 -40 82 -84 164 -45 81
-83 153 -84 159 -3 14 -48 102 -119 232 -31 56 -59 112 -63 125 -4 14 -17 43
-30 65 -13 23 -41 74 -62 115 -22 41 -44 84 -50 95 -7 11 -34 65 -61 120 -28
55 -64 125 -81 155 -17 30 -39 73 -48 95 -10 22 -36 74 -57 115 -70 134 -222
431 -312 610 -49 96 -91 177 -95 180 -9 9 -69 129 -69 140 0 6 -11 27 -24 48
-34 54 -157 292 -151 292 3 0 -5 17 -18 37 -13 21 -35 62 -48 91 -13 28 -27
52 -31 52 -5 0 -8 6 -8 13 0 6 -16 38 -35 70 -19 32 -35 63 -35 70 0 7 -36 79
-80 161 -44 81 -80 152 -80 157 0 5 -38 78 -84 162 -46 83 -87 163 -91 177 -4
14 -18 43 -30 65 -58 103 -121 224 -167 320 -19 39 -54 106 -78 150 -54 100
-52 95 -94 185 -19 41 -49 100 -67 130 -41 73 -63 115 -90 175 -12 28 -51 104
-87 169 -35 66 -65 124 -66 130 -1 6 -8 22 -15 35 -41 74 -94 175 -176 336
-51 99 -138 270 -195 380 -56 110 -133 261 -171 335 -38 74 -85 164 -105 200
-19 36 -37 73 -39 83 -2 11 -15 38 -28 60 -46 79 -106 194 -155 297 -12 25
-39 77 -60 115 -48 88 -83 158 -110 215 -12 25 -40 79 -62 120 -50 90 -74 137
-131 255 -24 50 -47 92 -50 95 -4 3 -23 39 -43 80 -20 41 -42 80 -48 87 -6 7
-8 13 -4 13 6 0 -62 138 -74 150 -3 3 -23 41 -45 85 -22 44 -44 83 -50 87 -5
4 -7 8 -2 8 4 0 -20 51 -52 113 -74 140 -91 173 -137 267 -20 41 -40 80 -44
85 -4 6 -61 114 -125 240 -109 214 -237 463 -299 580 -14 28 -37 75 -51 105
-14 30 -37 75 -51 100 -14 25 -44 81 -66 125 -22 44 -49 98 -60 120 -12 22
-30 58 -41 80 -11 22 -39 74 -63 116 -24 42 -44 82 -44 89 0 7 -28 63 -61 124
-105 189 -109 196 -109 207 0 6 -38 81 -85 166 -47 85 -85 159 -85 164 0 5
-19 44 -41 86 -23 43 -55 105 -72 138 -16 33 -36 67 -44 76 -7 9 -16 26 -18
39 -2 12 -25 60 -51 108 -25 47 -50 92 -54 101 -5 9 -19 34 -31 56 -13 22 -25
47 -26 56 -1 9 -38 81 -81 160 -44 79 -82 155 -87 169 -4 14 -13 34 -20 45 -6
11 -29 52 -50 90 -20 39 -52 97 -70 130 -18 33 -36 70 -40 83 -3 12 -42 88
-86 167 -43 80 -79 148 -79 153 0 9 -77 162 -90 177 -4 5 -52 98 -106 205 -54
107 -108 211 -121 230 -13 19 -23 43 -23 52 0 10 -4 18 -10 18 -5 0 -10 6 -10
13 0 7 -16 44 -37 82 -20 39 -71 138 -113 220 -114 223 -274 531 -314 605 -20
36 -38 72 -41 80 -3 8 -29 60 -57 115 -29 55 -87 170 -130 255 -77 151 -150
295 -170 334 -6 11 -32 60 -58 110 -27 50 -59 114 -73 141 -76 152 -111 219
-156 300 -28 50 -51 96 -51 102 0 7 -14 39 -32 70 -68 124 -135 253 -132 253
3 0 -12 30 -32 68 -21 37 -53 96 -71 132 -19 36 -39 69 -44 75 -5 5 -9 17 -9
27 0 10 -5 18 -11 18 -5 0 -7 5 -4 10 3 6 1 10 -4 10 -6 0 -10 3 -9 8 3 8 -82
176 -116 230 -13 20 -27 48 -31 62 -4 14 -23 54 -43 90 -19 36 -77 146 -127
245 -204 399 -273 533 -312 605 -23 41 -49 95 -59 120 -10 25 -25 56 -35 70
-9 14 -66 122 -126 240 -141 276 -161 315 -218 430 -27 52 -56 106 -65 120
-23 35 -60 109 -60 120 0 6 -40 85 -90 176 -49 90 -90 169 -90 174 0 5 -27 58
-60 118 -33 60 -60 113 -60 117 0 4 -9 20 -21 36 -11 16 -22 37 -23 46 -2 10
-40 84 -84 165 -44 81 -83 159 -86 173 -4 15 -17 43 -30 63 -35 57 -133 244
-141 272 -4 14 -18 41 -30 60 -17 27 -99 186 -155 300 -4 8 -25 49 -47 90 -97
179 -123 230 -119 230 3 0 -16 37 -41 83 -25 45 -94 177 -154 294 -59 116
-114 222 -122 235 -8 13 -27 52 -43 88 -16 36 -31 67 -34 70 -3 3 -16 29 -29
58 -14 28 -27 52 -30 52 -3 0 -19 28 -35 63 -48 106 -124 256 -136 267 -3 3
-18 34 -35 70 -16 36 -57 117 -91 180 -34 63 -88 169 -121 235 -33 66 -81 158
-106 204 -26 46 -47 88 -47 93 0 5 -19 44 -41 86 -23 42 -63 118 -90 168 -27
50 -49 97 -49 104 0 6 -8 24 -19 38 -14 21 -101 188 -164 317 -15 30 -70 133
-115 216 -23 42 -42 81 -42 86 0 6 -37 77 -81 159 -45 82 -82 155 -82 162 0 6
-5 12 -10 12 -6 0 -8 2 -5 5 3 3 -30 72 -75 153 -44 81 -80 153 -80 160 0 6
-4 12 -9 12 -4 0 -7 3 -6 8 2 7 -61 132 -107 212 -14 25 -30 57 -36 73 -6 15
-29 60 -50 100 -21 39 -74 142 -118 227 -43 85 -124 245 -181 355 -57 110
-142 277 -190 370 -48 94 -132 256 -185 360 -54 105 -135 262 -180 350 -45 88
-98 192 -118 230 -20 39 -55 108 -78 155 -23 47 -45 87 -48 90 -6 5 -75 141
-76 150 -1 9 -110 215 -152 288 -14 23 -22 42 -19 42 5 0 -10 30 -111 214 -30
55 -56 107 -58 116 -2 10 -22 50 -45 91 -22 41 -67 126 -99 189 -32 63 -109
214 -171 335 -62 121 -159 310 -215 420 -56 110 -114 220 -128 245 -15 25 -27
55 -27 68 l0 22 1168 0 c642 0 2357 -4 3812 -10z m35711 -2717 c52 -29 69 -43
69 -59 0 -12 -27 -74 -61 -139 -34 -64 -60 -117 -58 -119 2 -2 70 -37 150 -79
l147 -77 14 23 c8 12 32 57 54 101 21 43 49 85 61 93 19 13 27 11 92 -21 102
-52 102 -55 35 -181 -30 -58 -54 -110 -52 -116 2 -5 78 -50 168 -98 192 -103
165 -109 250 55 30 58 63 110 74 116 15 8 34 2 92 -28 44 -24 75 -47 78 -59 7
-27 -212 -444 -241 -457 -17 -8 -29 -6 -55 10 -18 11 -121 66 -228 122 -208
109 -293 154 -460 243 -195 103 -355 188 -407 214 -29 15 -54 35 -57 47 -3 13
30 87 101 220 58 111 110 207 116 214 16 20 44 14 118 -25z m-111 -953 c110
-36 248 -105 358 -178 225 -147 336 -340 303 -522 -14 -77 -138 -318 -165
-322 -12 -2 -68 22 -126 53 -58 31 -163 86 -235 124 -71 38 -254 134 -405 214
-151 81 -310 164 -353 186 -53 27 -79 47 -83 62 -6 24 73 183 133 265 37 52
110 109 169 134 49 21 180 32 258 22 32 -5 98 -21 146 -38z m-298 -1060 c541
-170 647 -206 652 -223 3 -12 -13 -52 -40 -102 l-45 -83 -140 48 -139 47 -35
-61 c-50 -90 -60 -115 -49 -125 5 -4 57 -45 116 -91 l108 -83 -43 -80 c-23
-44 -52 -84 -63 -89 -19 -9 -80 36 -510 379 -269 213 -515 408 -546 433 l-57
44 52 99 c43 81 55 98 72 94 11 -2 311 -95 667 -207z m-918 -529 c117 -62 202
-108 521 -276 143 -75 296 -156 340 -180 44 -23 113 -59 152 -81 40 -21 76
-46 79 -56 4 -14 -39 -110 -70 -155 -1 -1 -167 22 -369 51 -202 29 -367 52
-367 50 0 -1 44 -26 98 -55 53 -28 124 -66 157 -84 33 -18 122 -65 198 -105
76 -40 141 -79 144 -87 9 -22 -62 -160 -86 -168 -11 -3 -36 4 -63 18 -40 23
-310 166 -568 301 -492 259 -569 302 -574 321 -4 15 48 130 69 153 1 2 164
-20 360 -48 197 -28 359 -49 362 -47 2 3 -127 74 -287 158 -182 97 -292 161
-296 172 -5 17 40 118 69 155 16 20 35 15 131 -37z m-343 -1006 c272 -47 624
-248 758 -433 69 -95 95 -163 95 -252 1 -58 -4 -84 -21 -116 -52 -98 -141
-151 -270 -161 -140 -10 -284 24 -470 112 -269 128 -473 305 -533 463 -28 74
-27 163 4 227 67 145 215 199 437 160z m-380 -982 c195 -104 461 -244 591
-313 155 -82 238 -131 242 -144 7 -28 -64 -166 -90 -172 -20 -5 -103 38 -650
337 -39 21 -75 39 -78 39 -4 0 34 -48 86 -106 126 -143 123 -138 108 -174 -7
-16 -16 -30 -19 -30 -4 0 -79 9 -166 20 -87 11 -160 18 -162 17 -1 -2 109 -60
245 -130 489 -251 477 -244 479 -269 4 -35 -67 -162 -93 -166 -12 -2 -155 68
-345 169 -178 94 -371 196 -429 226 -393 207 -421 223 -428 241 -3 9 12 48 34
89 28 53 44 73 59 73 11 0 113 -10 228 -21 114 -12 210 -19 213 -16 3 3 -55
77 -130 165 -74 88 -140 169 -147 179 -9 16 -5 31 25 90 31 63 45 79 67 82 3
1 165 -83 360 -186z m-813 -854 c73 -40 82 -47 82 -71 0 -11 -27 -70 -60 -130
-33 -61 -60 -114 -60 -117 0 -3 67 -41 149 -84 l150 -78 25 43 c13 24 39 73
57 110 20 40 40 69 52 72 25 6 153 -57 167 -84 9 -16 1 -38 -46 -125 -31 -58
-54 -111 -51 -118 3 -6 81 -51 173 -99 l169 -87 64 125 c35 69 72 129 82 135
23 12 166 -56 175 -83 7 -24 -214 -447 -241 -459 -21 -10 -25 -8 -405 194
-287 152 -681 360 -737 389 -34 18 -64 41 -67 52 -4 15 154 334 210 424 19 30
45 28 112 -9z m-133 -1209 c226 -120 442 -233 480 -253 70 -35 71 -35 81 -13
50 105 131 246 144 249 8 2 50 -14 93 -35 60 -30 77 -43 77 -60 0 -19 -57
-133 -188 -378 -23 -41 -49 -78 -59 -83 -17 -7 -113 41 -603 302 -63 33 -224
118 -357 188 -167 88 -244 134 -247 148 -7 24 71 173 93 178 20 4 1 14 486
-243z m-598 -1347 c136 -64 191 -238 117 -373 -89 -164 -322 -192 -444 -53
-145 165 -52 423 165 453 65 9 99 3 162 -27z m-1317 -1340 c51 -28 70 -43 70
-59 0 -11 -27 -73 -61 -138 -34 -64 -59 -119 -58 -120 2 -2 70 -38 150 -80
l147 -76 14 22 c8 13 34 62 59 110 26 53 51 89 62 92 27 7 164 -63 171 -87 3
-12 -16 -59 -50 -122 -30 -56 -54 -107 -54 -113 0 -11 301 -174 332 -180 12
-2 33 29 79 118 34 67 71 126 81 131 15 8 35 2 94 -28 41 -21 77 -46 80 -56 8
-24 -221 -454 -245 -462 -11 -3 -38 5 -63 18 -23 13 -126 68 -228 122 -216
114 -379 200 -505 267 -49 26 -161 85 -247 130 -106 56 -159 89 -162 102 -3
13 30 87 96 211 126 238 124 235 149 235 11 0 51 -17 89 -37z m-416 -807 c45
-24 128 -68 186 -99 58 -30 213 -112 345 -182 132 -70 283 -150 335 -178 52
-27 125 -66 162 -86 37 -19 69 -43 72 -54 4 -16 -28 -86 -70 -154 -8 -13 -23
-23 -34 -23 -11 0 -165 77 -342 171 -303 161 -388 205 -598 317 -218 115 -249
133 -255 152 -6 18 46 130 76 166 18 22 36 17 123 -30z m216 -808 c383 -203
592 -318 596 -330 7 -24 -75 -172 -99 -176 -14 -3 -274 128 -454 230 l-52 29
-45 -84 c-25 -46 -46 -88 -46 -93 0 -5 10 -14 23 -19 22 -11 177 -92 364 -192
56 -30 104 -62 107 -71 8 -23 -69 -169 -92 -176 -11 -4 -70 22 -152 65 -146
77 -335 177 -471 249 -47 25 -196 104 -331 175 -171 90 -248 136 -252 150 -6
23 60 152 86 169 19 12 56 -5 355 -164 84 -44 156 -80 162 -80 9 0 91 150 91
167 0 4 -110 66 -244 137 -175 93 -246 135 -250 150 -3 13 8 45 31 86 44 80
52 90 70 90 7 0 279 -140 603 -312z m-961 -563 c41 -20 72 -43 76 -54 4 -14
-8 -46 -35 -97 -23 -42 -38 -79 -34 -83 7 -6 617 -331 946 -503 32 -17 60 -39
63 -49 4 -10 -11 -51 -35 -98 -33 -66 -44 -81 -63 -81 -13 0 -73 26 -133 58
-60 32 -167 89 -239 127 -71 37 -191 100 -265 140 -74 40 -192 102 -262 139
l-127 67 -43 -80 c-24 -44 -51 -82 -61 -85 -10 -2 -50 13 -90 34 -63 34 -72
42 -72 67 0 17 54 130 133 281 104 196 138 252 153 252 11 0 51 -16 88 -35z
m-237 -850 c232 -40 526 -193 694 -361 55 -55 83 -94 116 -160 39 -80 43 -94
43 -163 0 -65 -4 -83 -29 -129 -51 -92 -137 -140 -269 -149 -341 -23 -891 295
-999 579 -26 69 -24 160 6 223 67 145 216 199 438 160z m-490 -930 c165 -28
353 -110 535 -231 258 -172 379 -406 294 -572 -102 -200 -384 -216 -749 -42
-259 124 -463 302 -522 458 -28 74 -27 163 4 227 67 146 214 199 438 160z
m-510 -914 c124 -65 272 -144 329 -174 136 -73 299 -159 482 -255 81 -42 149
-84 152 -94 9 -26 -66 -168 -91 -174 -20 -5 -83 27 -661 342 -33 19 -64 34
-68 34 -3 0 35 -48 87 -106 126 -143 123 -138 108 -174 -7 -16 -16 -30 -19
-30 -4 0 -79 9 -166 20 -87 11 -160 18 -161 17 -2 -1 160 -87 359 -189 308
-159 362 -190 364 -210 2 -13 -14 -54 -35 -93 -45 -85 -59 -89 -145 -42 -34
19 -138 75 -232 124 -225 119 -384 203 -649 344 -121 63 -225 123 -230 133
-17 25 58 166 87 166 12 0 115 -10 230 -21 114 -12 210 -19 213 -16 3 3 -58
81 -136 173 -78 92 -144 173 -147 180 -9 24 72 164 96 164 4 0 109 -54 233
-119z m-574 -958 c2 -15 -8 -30 -34 -49 -34 -26 -73 -91 -74 -121 0 -24 52
-72 98 -88 38 -14 102 -19 332 -25 218 -6 299 -12 344 -25 132 -37 226 -107
273 -203 64 -130 12 -302 -114 -382 l-44 -28 -82 43 c-65 35 -83 49 -85 69 -3
20 5 28 44 48 60 30 89 68 89 118 0 90 -74 119 -315 126 -317 8 -395 13 -454
29 -293 80 -389 353 -194 548 l48 48 83 -43 c58 -31 83 -50 85 -65z m-381
-1649 c137 -65 191 -239 117 -374 -50 -93 -136 -141 -248 -141 -227 0 -349
275 -199 450 82 96 212 121 330 65z m-1316 -1341 c52 -29 69 -43 69 -59 0 -12
-27 -73 -60 -135 -33 -62 -60 -115 -60 -118 0 -4 67 -41 150 -84 l149 -78 25
43 c13 24 39 73 57 110 20 40 40 69 52 72 28 7 164 -63 171 -88 3 -12 -15 -57
-49 -121 -30 -56 -55 -107 -55 -113 0 -11 316 -182 336 -182 7 0 41 54 76 121
34 66 71 125 81 131 24 13 164 -58 171 -86 5 -19 -33 -97 -182 -375 -22 -41
-47 -78 -56 -83 -17 -10 -57 8 -241 107 -33 18 -184 98 -335 178 -151 80 -327
173 -390 207 -63 33 -143 75 -177 92 -36 19 -64 40 -67 51 -3 13 30 87 96 211
125 238 124 236 149 236 11 0 51 -17 90 -37z m-160 -864 c100 -48 170 -114
211 -197 30 -60 33 -75 33 -152 -1 -69 -6 -97 -28 -150 -15 -36 -23 -66 -19
-68 4 -1 115 -59 247 -130 180 -95 241 -132 243 -147 1 -11 -16 -55 -38 -97
-32 -60 -46 -78 -62 -78 -21 0 -90 36 -703 361 -143 75 -312 165 -375 198 -95
49 -116 64 -118 84 -4 32 99 224 151 284 87 98 171 135 298 130 73 -3 95 -8
160 -38z m-450 -850 c100 -48 170 -114 211 -197 30 -60 33 -75 33 -152 -1 -69
-6 -97 -28 -150 -14 -35 -25 -65 -24 -65 1 -1 43 -22 92 -48 285 -146 400
-213 403 -233 2 -11 -16 -55 -38 -97 -31 -57 -47 -77 -62 -77 -21 0 -73 27
-598 305 -168 89 -371 197 -452 239 -133 69 -148 80 -148 103 0 34 104 223
153 279 87 99 171 136 298 131 73 -3 95 -8 160 -38z m-204 -1071 c524 -164
642 -204 646 -220 3 -11 -13 -54 -39 -103 l-45 -84 -139 48 -139 49 -24 -42
c-34 -57 -67 -124 -67 -133 0 -4 52 -48 115 -97 l115 -89 -43 -80 c-23 -44
-52 -84 -63 -89 -23 -11 -10 -21 -810 618 l-302 240 51 98 c48 91 52 97 76 91
14 -4 315 -97 668 -207z m-747 -625 c120 -48 205 -124 237 -213 l16 -45 111
-1 c123 0 162 -7 381 -65 205 -55 213 -58 220 -79 5 -17 -59 -154 -86 -184 -4
-5 -82 12 -176 38 -279 76 -387 92 -426 64 -15 -11 -8 -18 61 -53 259 -134
416 -222 424 -240 7 -16 0 -38 -32 -97 -23 -43 -50 -80 -61 -83 -12 -4 -39 5
-72 23 -28 16 -90 50 -137 74 -47 25 -132 70 -190 101 -58 30 -231 122 -385
204 -154 81 -310 164 -347 183 -40 21 -69 43 -72 54 -6 23 59 151 114 223 40
53 121 107 184 122 61 15 161 3 236 -26z m-623 -710 c40 -21 74 -46 76 -55 3
-9 -18 -60 -45 -113 -27 -53 -48 -98 -46 -99 1 -2 69 -38 150 -80 l147 -77 46
90 c53 107 64 111 159 58 88 -49 89 -53 34 -158 l-48 -89 29 -18 c16 -9 133
-71 260 -137 144 -75 233 -127 237 -139 8 -24 -64 -165 -91 -178 -17 -7 -115
41 -545 269 -289 153 -555 294 -592 313 -39 20 -69 43 -72 54 -5 20 175 374
198 388 19 13 28 10 103 -29z m-320 -1769 c123 -60 182 -208 133 -338 -43
-114 -137 -176 -264 -176 -189 0 -314 190 -246 373 55 146 231 212 377 141z
m-830 -1620 c554 -173 662 -210 667 -227 3 -12 -13 -52 -40 -103 l-45 -83
-140 49 -139 48 -45 -82 c-25 -46 -45 -87 -45 -92 0 -5 52 -49 115 -98 l115
-89 -43 -80 c-23 -44 -52 -84 -63 -89 -19 -9 -55 16 -290 204 -148 117 -394
312 -546 433 l-277 220 52 98 c28 53 54 97 57 97 3 1 303 -92 667 -206z m-916
-531 c52 -29 69 -43 69 -59 0 -12 -27 -73 -60 -135 -33 -62 -60 -115 -60 -118
0 -4 67 -41 149 -83 l149 -78 14 23 c8 12 34 61 59 109 26 53 51 89 62 92 27
7 164 -63 171 -87 2 -11 -19 -64 -54 -130 l-59 -111 176 -93 c97 -51 177 -92
178 -91 0 2 16 32 34 68 69 134 102 188 118 194 21 8 161 -64 169 -86 7 -22
-214 -446 -239 -460 -21 -11 -3 -19 -412 198 -138 72 -309 163 -380 201 -72
37 -194 102 -272 143 -91 48 -144 82 -147 94 -3 12 34 94 101 220 58 111 110
207 116 214 16 20 44 14 118 -25z m-392 -718 c42 -21 72 -43 76 -55 4 -14 -6
-44 -34 -95 -23 -41 -41 -76 -41 -79 0 -2 96 -55 213 -117 116 -61 235 -124
262 -139 28 -15 104 -55 170 -90 66 -35 143 -75 170 -90 28 -15 82 -44 122
-65 40 -20 75 -46 78 -56 4 -11 -10 -49 -36 -99 -32 -63 -46 -80 -63 -80 -12
0 -247 119 -521 265 -442 233 -501 262 -512 248 -7 -9 -27 -44 -45 -79 -18
-35 -41 -65 -52 -68 -10 -3 -49 12 -90 34 -62 34 -71 42 -71 67 0 17 54 130
134 281 103 194 138 252 153 252 10 0 50 -16 87 -35z m-349 -1833 c135 -67
187 -238 113 -374 -113 -208 -434 -176 -499 50 -70 239 164 435 386 324z
m-1159 -1417 c283 -49 645 -262 775 -455 56 -84 78 -148 79 -230 0 -64 -4 -82
-29 -128 -106 -190 -386 -202 -744 -32 -259 124 -463 302 -522 458 -28 74 -27
163 4 227 67 145 215 199 437 160z m-553 -882 c2 -15 -8 -30 -34 -49 -34 -26
-73 -91 -74 -121 0 -24 52 -72 98 -88 38 -14 102 -19 332 -25 218 -6 299 -12
344 -25 188 -53 300 -174 300 -325 0 -56 -6 -79 -32 -133 -34 -68 -97 -133
-139 -143 -16 -4 -48 7 -101 34 -62 33 -78 45 -80 66 -3 21 4 29 43 47 123 58
121 180 -5 222 -42 14 -95 20 -220 23 -407 10 -456 16 -563 71 -206 104 -247
347 -87 503 l52 51 81 -44 c58 -30 83 -49 85 -64z m-442 -616 c95 -53 103 -72
48 -113 -34 -26 -73 -91 -74 -121 0 -24 52 -72 98 -88 38 -14 102 -19 332 -25
218 -6 299 -12 344 -25 132 -37 226 -107 273 -203 63 -129 12 -302 -114 -382
l-43 -27 -85 44 c-71 37 -85 48 -85 68 0 19 11 29 47 47 84 42 111 108 71 168
-37 55 -99 71 -298 76 -312 8 -395 13 -454 29 -127 35 -218 102 -263 193 -37
75 -39 182 -6 254 18 39 111 148 126 148 3 0 40 -20 83 -43z m-385 -714 c55
-29 69 -42 69 -60 0 -13 -28 -75 -61 -139 -34 -63 -60 -116 -58 -118 2 -2 70
-37 150 -79 l147 -77 14 23 c8 12 34 61 59 109 28 56 51 89 64 92 27 7 162
-63 169 -87 3 -11 -19 -63 -51 -123 -30 -57 -53 -109 -51 -115 3 -9 65 -44
276 -154 l65 -34 13 25 c88 170 122 227 137 235 22 13 164 -57 173 -84 7 -22
-213 -444 -239 -459 -18 -9 -64 11 -232 102 -27 15 -102 55 -165 88 -63 33
-205 108 -315 166 -110 58 -266 141 -347 183 -93 50 -149 85 -152 97 -4 15
154 334 210 424 20 31 46 28 125 -15z m-320 -893 c30 -5 91 -28 136 -50 95
-47 163 -115 190 -190 l17 -48 75 5 c93 6 212 -13 416 -68 206 -55 213 -58
220 -80 7 -21 -78 -189 -96 -189 -5 0 -66 16 -137 36 -273 77 -406 99 -454 73
-18 -10 10 -27 228 -142 136 -73 252 -140 258 -149 8 -13 1 -34 -29 -93 -22
-42 -48 -81 -58 -86 -20 -11 -27 -8 -790 396 -296 156 -417 226 -421 240 -6
22 68 166 116 228 41 51 106 94 170 111 65 18 90 19 159 6z m-274 -805 c95
-44 164 -110 206 -194 29 -59 32 -74 31 -151 0 -68 -5 -98 -27 -150 -14 -35
-25 -65 -24 -65 1 -1 72 -38 157 -83 317 -166 335 -176 338 -198 2 -11 -16
-55 -38 -97 -31 -58 -47 -77 -62 -77 -12 0 -150 68 -307 151 -157 83 -333 176
-391 207 -58 30 -124 65 -147 78 -23 13 -112 59 -197 104 -138 73 -156 85
-156 107 0 14 26 73 57 132 142 265 330 345 560 236z m-619 -822 c2 -14 -8
-29 -32 -48 -42 -32 -61 -60 -70 -101 -6 -25 -2 -37 19 -62 47 -56 90 -63 405
-72 217 -6 299 -12 344 -25 188 -53 300 -174 300 -325 0 -56 -6 -79 -32 -133
-33 -67 -96 -133 -138 -143 -14 -4 -51 9 -103 35 -68 35 -81 45 -81 66 0 19
10 29 47 47 123 62 119 178 -7 222 -46 16 -101 20 -335 26 -212 6 -294 12
-339 25 -128 36 -218 102 -263 193 -23 47 -28 70 -28 132 0 92 26 152 97 223
l48 48 83 -43 c58 -31 83 -50 85 -65z m-457 -650 c54 -30 69 -43 69 -60 0 -13
-27 -73 -60 -135 -33 -61 -60 -114 -60 -117 0 -4 67 -41 149 -84 l149 -77 25
42 c13 24 39 71 56 105 44 89 56 93 146 46 42 -21 76 -46 79 -56 2 -10 -21
-66 -54 -130 l-59 -112 92 -48 c51 -26 129 -67 175 -91 l82 -45 14 22 c7 12
39 70 70 128 31 59 64 110 73 113 22 9 161 -63 169 -87 8 -24 -220 -454 -245
-462 -26 -8 -1198 613 -1205 639 -3 13 32 90 101 220 58 111 110 207 116 214
16 20 44 14 118 -25z"/>
<path d="M34740 45076 c-133 -38 -250 -84 -315 -124 -33 -20 -72 -43 -87 -51
-15 -8 -37 -23 -48 -33 -11 -10 -20 -17 -20 -14 0 7 -175 -106 -354 -228 -83
-55 -143 -103 -139 -109 3 -5 1 -7 -5 -3 -9 5 -302 -204 -350 -251 -10 -10
-42 -37 -72 -59 -214 -161 -696 -597 -683 -617 3 -6 2 -7 -4 -4 -10 6 -69 -48
-75 -68 -2 -5 -6 -9 -9 -8 -7 2 -74 -65 -74 -75 0 -4 -3 -6 -6 -5 -8 3 -75
-67 -71 -75 1 -4 -3 -7 -10 -7 -19 0 -328 -338 -323 -353 3 -7 1 -10 -4 -7
-17 10 -405 -460 -395 -477 3 -5 1 -7 -4 -6 -28 8 -571 -769 -556 -794 4 -6 3
-8 -3 -5 -7 4 -58 -72 -126 -186 -104 -175 -138 -233 -251 -437 -80 -143 -136
-261 -130 -272 4 -6 3 -8 -3 -5 -9 6 -99 -160 -95 -176 2 -8 -2 -8 -148 27
-58 14 -134 30 -170 35 -95 16 -349 13 -465 -4 -199 -30 -448 -99 -669 -187
-54 -21 -100 -37 -102 -35 -2 2 15 21 38 43 135 124 486 440 628 564 742 649
1151 1098 1544 1695 189 287 283 456 357 641 48 124 129 407 199 699 31 129
57 216 74 245 32 55 35 135 7 195 -24 54 -99 126 -164 157 -149 73 -368 95
-497 49 -109 -38 -281 -125 -350 -177 -164 -123 -374 -299 -570 -478 -161
-147 -454 -450 -625 -646 -192 -221 -247 -289 -239 -301 4 -7 3 -9 -4 -5 -6 3
-23 -10 -39 -31 -15 -21 -30 -40 -33 -43 -7 -6 -176 -230 -260 -343 -83 -112
-254 -363 -352 -516 -142 -221 -331 -541 -320 -541 4 0 2 -4 -4 -8 -9 -6 -29
-38 -91 -152 -88 -158 -104 -191 -97 -201 4 -7 3 -9 -3 -6 -6 4 -53 -78 -112
-196 l-102 -204 -142 -21 c-78 -12 -180 -26 -227 -32 -47 -6 -139 -22 -205
-35 -121 -23 -352 -51 -360 -43 -3 2 11 58 29 124 49 168 56 219 56 378 0 261
-61 447 -205 622 -80 98 -128 143 -201 194 -207 143 -431 196 -733 172 -427
-34 -682 -154 -1024 -482 -223 -213 -396 -455 -452 -630 -10 -30 -18 -56 -19
-57 -1 -1 -75 -21 -165 -43 -89 -22 -219 -59 -289 -81 -142 -46 -345 -91 -350
-78 -2 4 6 70 19 145 35 219 21 417 -43 601 -12 34 -26 59 -31 56 -6 -3 -7 -1
-3 5 7 12 -32 112 -44 112 -4 0 -10 9 -13 21 -4 13 -10 18 -18 13 -7 -4 -10
-3 -6 4 17 27 -189 226 -308 298 -218 131 -479 160 -821 89 -364 -75 -603
-226 -889 -560 -95 -110 -147 -182 -218 -296 -136 -220 -167 -302 -207 -544
-12 -71 -27 -141 -33 -154 -7 -14 -36 -39 -65 -56 -30 -17 -62 -45 -72 -61
-33 -51 -52 -247 -55 -546 l-2 -267 -139 -147 c-77 -80 -138 -152 -138 -159 1
-8 -4 -11 -10 -9 -7 3 -35 -21 -63 -53 -28 -32 -74 -82 -102 -111 -44 -46 -50
-56 -39 -70 10 -14 10 -15 -1 -5 -11 9 -56 -32 -225 -201 -262 -263 -347 -326
-442 -326 -31 0 -33 2 -43 53 -62 314 -33 662 95 1141 54 200 116 394 234 731
l88 250 -14 85 c-19 121 -48 208 -109 335 -173 357 -513 543 -843 461 -128
-32 -359 -165 -595 -343 -371 -280 -793 -720 -1069 -1114 l-75 -107 -11 152
c-12 153 -34 295 -54 344 -6 15 -12 32 -14 37 -8 36 -45 105 -53 100 -5 -3
-13 0 -17 6 -4 8 -3 9 4 5 22 -13 12 6 -32 68 -55 76 -111 130 -125 121 -7 -3
-10 -1 -9 6 5 20 -74 68 -142 85 -130 33 -268 5 -370 -76 -39 -31 -55 -58
-227 -390 -33 -63 -93 -177 -132 -252 -40 -76 -68 -138 -64 -138 4 0 3 -4 -3
-8 -10 -6 -112 -202 -288 -549 -32 -62 -54 -118 -50 -124 4 -7 3 -9 -4 -5 -13
8 -146 -250 -136 -266 4 -7 3 -8 -4 -4 -7 4 -24 -19 -45 -61 -33 -65 -35 -66
-40 -38 -4 17 -11 134 -17 260 -5 127 -12 286 -16 355 -8 196 -23 340 -40 400
-38 132 -108 220 -229 287 -68 37 -73 38 -170 38 -88 0 -107 -3 -157 -27 -62
-29 -108 -70 -134 -120 -29 -56 -36 -239 -37 -978 0 -1007 13 -1164 135 -1525
105 -315 250 -485 413 -485 55 0 58 2 108 53 45 45 56 65 85 152 81 242 313
867 369 993 8 18 11 37 7 44 -4 7 -3 8 4 4 7 -4 12 -3 12 3 0 10 151 368 210
497 52 114 231 474 271 544 20 36 74 134 120 219 l84 153 7 -103 c40 -562 194
-1100 341 -1190 80 -48 180 0 291 140 53 67 316 446 316 456 0 3 10 16 21 30
23 25 90 119 136 190 44 68 396 535 482 640 160 196 267 320 369 427 35 36 52
60 47 69 -5 8 -4 10 4 5 14 -9 182 164 174 178 -4 5 -1 6 6 1 9 -5 36 15 80
57 80 78 131 118 195 152 55 29 74 32 101 12 17 -13 17 -16 -10 -92 -15 -43
-34 -93 -41 -110 -8 -17 -48 -125 -90 -240 -220 -604 -309 -1006 -321 -1465
-6 -241 3 -353 44 -509 48 -187 116 -319 205 -395 115 -98 271 -174 414 -201
110 -20 338 -15 429 10 103 28 214 89 295 163 204 184 540 540 532 565 -1 5 1
7 6 4 5 -3 24 14 44 37 70 85 244 303 273 344 33 47 43 52 52 26 28 -83 98
-231 106 -226 5 3 7 1 4 -4 -9 -15 66 -125 125 -184 64 -64 121 -102 233 -155
125 -59 238 -84 390 -84 183 0 300 39 453 152 118 88 409 389 395 410 -3 7 -1
8 5 4 6 -3 16 2 21 13 6 11 17 26 26 34 20 21 183 239 234 315 23 34 39 67 35
74 -4 6 -3 8 4 4 14 -8 55 50 46 65 -4 7 -3 9 3 6 13 -8 87 109 78 123 -4 6
-1 9 7 8 7 -2 12 5 12 14 -1 10 2 16 6 13 12 -8 191 294 184 308 -4 7 -3 9 1
4 11 -10 58 70 49 85 -4 7 -3 8 4 4 7 -4 31 27 63 82 l51 88 95 43 c52 23 139
58 193 77 97 34 392 115 398 109 1 -1 -8 -58 -22 -126 -58 -292 -76 -542 -57
-774 33 -397 147 -678 331 -822 186 -144 361 -206 585 -206 107 0 129 3 205
29 101 35 234 110 224 126 -4 7 -2 8 4 4 7 -4 38 14 73 41 33 26 73 57 87 68
15 11 37 30 49 43 12 12 27 22 32 22 18 0 354 341 477 485 234 272 478 590
468 607 -4 6 -3 8 3 5 12 -8 35 17 97 105 l47 67 112 37 c134 43 289 77 452
99 66 8 182 27 258 42 76 14 140 23 143 20 3 -3 -19 -61 -49 -129 -62 -141
-145 -346 -149 -368 -2 -8 -6 -17 -9 -20 -7 -7 -92 -230 -173 -455 -95 -265
-228 -693 -220 -707 4 -6 3 -8 -3 -5 -11 7 -153 -511 -183 -668 -29 -159 -85
-521 -112 -730 -18 -141 -23 -227 -23 -395 1 -281 26 -437 112 -705 88 -274
183 -348 499 -387 84 -10 96 -9 153 10 107 36 190 90 281 181 104 104 154 167
144 183 -4 7 -3 8 4 4 15 -9 106 130 96 146 -4 6 -3 8 4 4 6 -4 33 35 68 100
260 485 478 1238 593 2049 47 328 63 554 70 975 l6 384 90 57 c50 32 113 70
142 85 29 15 49 32 46 37 -3 6 -1 7 4 4 6 -4 57 16 113 44 194 95 379 159 550
189 108 20 433 10 548 -15 21 -5 21 -6 6 -30 -9 -14 -12 -25 -8 -25 5 0 4 -4
-3 -8 -6 -4 -43 -79 -81 -167 -38 -88 -107 -241 -151 -339 -45 -99 -80 -185
-77 -193 3 -7 1 -12 -4 -10 -12 2 -100 -197 -205 -463 -275 -695 -417 -1258
-491 -1945 -24 -223 -25 -607 -1 -731 35 -187 82 -286 168 -354 55 -43 180
-92 316 -123 85 -19 100 -20 178 -9 48 7 115 23 150 36 76 27 189 93 234 136
18 16 36 30 40 30 12 0 147 144 221 234 285 354 500 830 661 1466 66 265 64
253 103 466 86 468 116 748 125 1161 l6 293 69 -65 c270 -258 629 -427 1071
-506 109 -19 149 -29 116 -29 -7 0 -10 -4 -6 -9 3 -5 1 -13 -5 -16 -16 -10
-124 -230 -169 -343 -52 -131 -93 -263 -87 -279 3 -8 2 -12 -3 -9 -10 7 -26
-76 -42 -224 -14 -124 -7 -275 16 -380 26 -115 112 -289 136 -275 5 4 6 0 4
-7 -8 -19 106 -131 191 -189 132 -89 338 -174 496 -204 122 -23 297 -30 418
-16 285 33 549 117 912 290 153 73 416 183 427 179 5 -2 -11 -48 -35 -103 -74
-173 -89 -246 -89 -430 1 -155 2 -163 34 -258 35 -102 105 -234 181 -339 52
-73 258 -283 344 -351 86 -69 203 -140 217 -131 7 4 9 3 6 -4 -6 -9 59 -45
183 -100 68 -30 283 -98 385 -121 815 -189 2118 -166 2920 51 153 42 335 103
393 132 60 30 112 83 112 112 0 12 -13 33 -30 47 -27 23 -40 26 -166 32 -132
7 -437 -5 -629 -25 -288 -31 -891 -60 -1225 -60 -710 0 -1078 56 -1408 215
-332 159 -423 283 -409 553 12 220 98 413 269 601 104 114 216 188 344 228 75
23 379 25 719 4 397 -24 702 -8 925 49 220 56 499 168 483 193 -3 6 -1 7 5 3
15 -9 154 123 148 141 -3 8 -2 11 3 8 16 -9 69 78 95 156 58 175 40 330 -60
519 -47 88 -58 100 -156 164 -286 186 -615 295 -951 315 -404 24 -786 -63
-1200 -270 -186 -93 -391 -220 -380 -235 5 -5 4 -6 -1 -2 -16 13 -333 -220
-328 -241 1 -7 -2 -10 -7 -7 -12 8 -81 -48 -224 -184 -160 -152 -266 -217
-527 -328 -240 -102 -605 -206 -900 -257 -200 -35 -485 -45 -598 -21 -101 21
-169 54 -223 109 -88 90 -93 196 -17 372 41 94 69 129 159 195 173 129 505
266 928 386 449 126 592 180 740 278 81 54 197 168 266 260 28 37 63 83 78
103 45 59 97 174 107 238 14 84 -3 173 -50 270 -41 86 -134 199 -156 191 -8
-3 -11 0 -8 9 9 21 -103 97 -180 122 -254 83 -545 112 -781 78 -270 -39 -574
-157 -798 -311 -123 -84 -268 -205 -261 -216 4 -6 3 -8 -3 -5 -10 6 -187 -169
-254 -252 -34 -43 -37 -44 -65 -33 -16 6 -83 30 -149 52 -175 61 -433 165
-565 228 -63 31 -117 56 -120 56 -3 1 -16 9 -30 17 -14 9 -59 35 -100 59 -138
79 -254 164 -341 250 -84 83 -159 181 -159 208 0 42 146 293 210 359 40 41
190 233 217 276 4 7 44 35 88 62 117 71 216 146 208 158 -3 6 -1 7 5 3 12 -7
201 143 412 328 161 140 466 411 520 462 25 23 77 70 115 104 39 35 106 98
150 139 44 42 133 125 197 185 65 60 115 113 111 119 -3 6 -1 7 4 4 11 -7 23
2 104 78 27 25 47 50 44 55 -3 6 0 8 7 5 7 -3 43 23 79 58 36 34 112 105 170
157 190 173 314 293 311 302 -1 5 1 7 6 4 12 -7 464 448 455 458 -5 4 -3 6 4
4 10 -3 63 52 152 157 56 66 143 216 207 355 57 123 74 151 97 161 16 7 41 31
55 53 24 37 27 50 26 131 -1 105 -24 175 -81 252 -79 105 -146 153 -288 203
-77 28 -106 33 -205 36 -98 3 -127 0 -200 -20z m409 -789 c-13 -13 -73 -77
-134 -142 -144 -155 -151 -163 -262 -277 -59 -60 -92 -102 -87 -109 4 -8 3 -9
-5 -5 -15 10 -224 -201 -215 -216 4 -6 3 -8 -2 -5 -13 8 -467 -440 -459 -453
4 -6 2 -9 -3 -8 -5 2 -129 -114 -274 -257 -355 -348 -534 -520 -758 -725 -57
-52 -131 -121 -164 -152 -32 -32 -70 -65 -83 -73 -13 -9 -21 -20 -18 -26 4 -5
2 -8 -3 -7 -6 2 -73 -52 -149 -118 -127 -112 -341 -289 -371 -308 -10 -6 -10
-2 0 18 6 14 15 26 21 26 5 0 6 7 3 16 -3 8 -2 13 3 9 5 -3 24 14 42 37 63 82
254 312 352 425 59 67 95 118 91 124 -4 7 -3 9 3 6 15 -9 77 59 68 74 -5 7 -4
10 2 6 11 -7 170 161 165 175 -1 4 1 7 6 6 4 -2 25 17 47 42 22 24 47 51 55
60 397 429 1054 1079 1288 1275 17 15 29 32 25 37 -3 6 -1 8 4 5 14 -9 185
142 176 156 -3 6 -1 7 6 3 7 -5 33 10 64 36 79 68 240 186 356 263 101 66 175
102 215 104 17 1 16 -1 -5 -22z m-3696 -354 c-44 -107 -212 -421 -313 -583
-25 -41 -49 -82 -53 -90 -8 -17 -171 -264 -269 -407 -83 -120 -301 -414 -413
-554 -16 -20 -50 -64 -75 -96 -25 -32 -50 -62 -56 -68 -6 -5 -46 -52 -90 -104
-70 -84 -129 -151 -281 -319 -23 -26 -39 -50 -36 -55 2 -4 1 -6 -4 -5 -5 2
-81 -71 -169 -161 -87 -90 -226 -227 -309 -304 -82 -77 -149 -144 -147 -149 1
-5 -1 -7 -6 -4 -13 8 -83 -54 -76 -66 4 -7 2 -8 -4 -4 -6 4 -42 -18 -79 -48
-37 -31 -72 -56 -76 -56 -31 -1 441 751 750 1197 39 56 69 104 67 107 -2 3 -1
4 2 1 10 -7 165 216 157 227 -3 6 -1 8 5 5 5 -4 26 14 45 40 19 27 79 107 135
180 55 72 99 134 96 137 -2 3 -1 4 2 2 3 -3 58 59 122 137 323 395 627 718
852 905 47 39 101 85 121 101 20 17 40 31 45 31 5 0 20 9 34 20 36 28 41 25
23 -17z m-8616 -2194 c96 -46 194 -151 237 -253 64 -152 59 -407 -10 -614 -30
-89 -59 -122 -108 -122 -18 0 -107 -13 -197 -29 -201 -36 -290 -47 -489 -62
-242 -18 -330 -2 -330 59 -1 48 -40 115 -101 174 -68 66 -74 91 -34 151 14 20
23 42 19 49 -4 7 -3 8 5 4 6 -4 14 1 19 11 4 11 52 84 106 164 192 278 422
463 619 499 90 16 191 4 264 -31z m3312 30 c92 -16 157 -51 224 -122 144 -152
182 -361 113 -629 -33 -130 -101 -274 -135 -287 -14 -5 -152 -15 -306 -21
-218 -10 -319 -10 -455 -1 -278 19 -310 31 -310 112 0 59 -25 113 -79 172 -64
71 -63 84 21 190 222 282 368 414 580 525 42 22 75 41 73 43 -2 2 9 5 23 6 15
1 50 6 77 11 71 13 99 14 174 1z m-936 -1548 c152 -26 358 -41 639 -48 l297
-6 -54 -106 c-54 -105 -165 -281 -237 -375 -21 -27 -35 -53 -32 -57 3 -5 1 -8
-4 -7 -15 5 -154 -161 -146 -175 4 -7 4 -9 -1 -5 -5 5 -54 -36 -109 -90 -56
-54 -130 -121 -164 -150 -63 -52 -187 -122 -217 -122 -20 0 -41 35 -69 118
-82 239 -99 711 -35 960 19 76 34 98 54 83 5 -5 40 -14 78 -20z m-2351 -56
c-3 -17 -45 -128 -86 -230 -6 -16 -29 -64 -51 -105 -21 -41 -39 -77 -40 -80
-2 -9 -60 -103 -146 -234 -165 -250 -351 -452 -467 -506 l-47 -22 -19 25 c-31
42 -92 187 -120 287 -74 268 -105 625 -68 799 l8 35 219 -3 c217 -2 482 14
695 44 116 16 126 15 122 -10z m12208 -364 c0 -17 -124 -123 -205 -176 -138
-90 -297 -150 -650 -245 -146 -39 -185 -46 -185 -34 0 38 227 272 312 323 110
64 256 111 403 130 95 12 325 13 325 2z m-3903 -59 c26 -130 29 -259 12 -442
-33 -367 -139 -881 -264 -1285 -148 -476 -335 -885 -450 -984 -134 -115 -215
-8 -215 284 0 152 16 258 71 478 86 347 205 696 334 982 15 33 45 101 68 150
37 84 161 329 324 645 39 74 78 150 87 168 18 34 27 35 33 4z m-2846 -241 c7
-31 12 -126 11 -216 -2 -507 -219 -1473 -420 -1871 -17 -34 -28 -65 -24 -69 4
-5 1 -5 -5 -1 -7 4 -13 2 -13 -4 0 -19 -77 -125 -114 -158 -41 -36 -68 -45
-117 -40 -24 2 -33 7 -30 18 2 8 9 69 17 135 28 250 78 516 145 775 51 200
192 617 477 1418 41 116 51 117 73 13z m9699 -981 c137 -16 284 -41 294 -50
12 -12 -12 -22 -154 -68 -120 -39 -172 -53 -325 -86 -95 -20 -311 -43 -480
-51 -136 -7 -488 9 -570 24 l-40 8 40 18 c22 9 73 33 114 52 140 64 396 131
581 152 108 12 441 13 540 1z"/>
<path d="M11588 44115 c-464 -66 -840 -224 -1286 -539 -145 -103 -272 -208
-265 -219 3 -5 2 -7 -4 -4 -14 9 -174 -132 -338 -297 -170 -171 -251 -261
-361 -403 -46 -59 -87 -112 -92 -118 -38 -48 -152 -215 -152 -223 0 -6 -3 -12
-7 -14 -23 -10 -184 -290 -263 -455 -181 -379 -246 -685 -206 -963 37 -255
110 -436 248 -617 22 -29 45 -50 51 -46 5 3 7 2 4 -4 -10 -16 101 -117 205
-186 299 -199 627 -254 1103 -186 145 21 366 65 840 169 751 165 1118 220
1465 220 414 0 681 -93 802 -280 16 -25 41 -83 56 -130 24 -76 27 -100 26
-225 0 -210 -51 -435 -182 -810 -99 -282 -282 -715 -414 -979 -27 -54 -47
-105 -44 -113 3 -8 2 -12 -3 -9 -12 8 -193 -352 -185 -367 4 -7 3 -9 -1 -4 -5
4 -23 -19 -40 -50 -225 -416 -244 -449 -366 -648 -51 -82 -131 -208 -178 -280
-47 -71 -85 -136 -85 -142 1 -7 -2 -11 -6 -8 -3 2 -29 -26 -56 -63 -93 -128
-234 -300 -310 -377 -11 -11 -25 -27 -30 -35 -7 -12 -157 -146 -199 -178 -32
-25 -139 -82 -188 -100 -170 -64 -361 -22 -478 106 -29 31 -56 56 -61 54 -5
-1 -7 2 -4 7 3 5 -9 40 -28 77 -104 214 -154 510 -143 854 8 224 35 458 81
675 37 179 117 449 190 643 25 68 43 129 40 134 -4 7 -2 8 4 4 7 -4 12 -2 12
4 0 7 38 89 84 183 76 156 122 239 245 440 23 37 39 73 35 80 -4 7 -4 9 1 5
17 -16 211 325 260 456 32 85 31 149 -1 154 -42 6 -113 -35 -333 -189 -181
-127 -354 -267 -346 -280 3 -5 0 -6 -7 -4 -27 11 -383 -377 -488 -531 -8 -12
-48 -69 -87 -127 -40 -59 -73 -111 -73 -116 0 -5 -3 -11 -8 -13 -13 -6 -111
-183 -172 -312 -251 -531 -333 -1049 -240 -1506 60 -296 181 -541 383 -775 91
-105 219 -219 232 -207 5 4 5 2 2 -5 -7 -10 26 -35 140 -107 47 -28 58 -32 47
-14 -4 7 -3 8 5 4 6 -4 9 -11 6 -16 -7 -11 162 -84 267 -114 408 -118 976 -20
1445 250 204 118 385 258 586 453 127 124 348 366 414 453 15 21 74 98 131
171 56 74 102 139 102 145 0 5 7 16 16 23 44 37 339 513 328 530 -4 7 -3 9 3
6 5 -3 24 22 43 56 18 34 48 90 67 125 19 34 31 62 26 62 -4 0 -3 4 3 8 28 18
243 494 314 697 189 536 261 872 276 1290 10 273 -23 487 -107 685 -47 109
-99 201 -111 194 -4 -3 -5 1 -3 8 7 18 -112 181 -125 173 -6 -4 -9 -3 -8 2 2
4 -5 19 -15 33 -9 13 -17 20 -17 15 0 -6 -8 3 -19 18 -49 75 -258 222 -443
312 -283 138 -609 218 -1048 257 -219 20 -1060 17 -1365 -5 -541 -37 -1000
-32 -1172 15 -43 11 -86 21 -95 22 -9 0 -15 3 -13 7 3 3 -8 12 -23 18 -41 18
-104 63 -130 91 -52 56 -57 76 -57 225 0 132 2 145 33 235 18 52 60 146 92
209 33 63 57 118 53 124 -3 6 -2 8 3 4 5 -3 27 24 49 60 84 137 321 464 364
503 3 3 31 34 61 70 99 118 213 241 351 379 142 142 173 171 301 285 43 37 75
73 71 79 -3 5 -2 7 4 4 6 -4 28 8 49 26 160 135 333 248 435 284 95 33 124 26
153 -36 20 -43 21 -61 21 -286 -1 -184 -6 -283 -23 -427 -42 -344 -154 -996
-262 -1513 -11 -55 -18 -111 -15 -124 6 -22 10 -23 56 -19 77 8 255 104 359
194 87 76 119 108 183 187 91 113 215 298 292 437 79 141 176 352 170 368 -3
7 -1 11 4 8 9 -6 100 236 127 337 95 350 110 674 40 880 -80 236 -255 402
-523 494 -72 24 -92 27 -268 29 -123 2 -224 -2 -287 -11z"/>
<path d="M16540 35661 c-11 -22 -20 -56 -20 -75 0 -19 -4 -38 -10 -41 -6 -4
-10 -95 -10 -240 0 -145 4 -236 10 -240 6 -3 10 -17 10 -31 0 -13 11 -46 24
-73 13 -28 21 -60 19 -74 -3 -13 2 -38 11 -56 9 -17 14 -41 11 -53 -3 -13 -1
-48 5 -78 6 -30 12 -66 14 -78 3 -13 11 -31 19 -40 8 -10 27 -62 41 -117 15
-55 36 -109 47 -121 11 -11 17 -28 14 -36 -3 -8 1 -21 10 -28 13 -11 19 -10
36 6 18 16 25 17 65 6 24 -7 64 -12 88 -12 39 0 45 -3 56 -30 7 -16 15 -30 19
-30 4 0 7 -55 6 -122 -1 -91 4 -141 17 -193 12 -43 21 -122 24 -205 5 -111 33
-304 48 -329 2 -3 10 -69 16 -146 7 -77 18 -167 26 -200 7 -33 14 -85 14 -116
0 -30 4 -59 9 -65 8 -9 30 -154 36 -241 1 -22 6 -47 10 -53 5 -7 12 -70 16
-139 15 -229 28 -360 39 -398 6 -21 13 -76 16 -123 2 -47 7 -96 11 -110 3 -14
5 -40 4 -58 -2 -18 2 -38 7 -45 6 -7 13 -50 16 -97 10 -139 14 -186 36 -370
11 -96 27 -240 36 -320 26 -242 40 -354 46 -370 4 -8 9 -69 12 -134 5 -85 11
-127 22 -144 11 -17 14 -36 10 -61 -8 -52 28 -424 64 -646 5 -33 12 -105 15
-160 4 -55 13 -131 20 -170 8 -38 17 -112 20 -164 3 -52 12 -122 20 -155 8
-34 15 -101 15 -151 0 -50 7 -112 15 -139 8 -27 15 -74 15 -105 0 -31 6 -99
14 -151 8 -52 17 -129 20 -170 4 -41 11 -102 16 -135 5 -33 14 -107 20 -165 6
-58 19 -172 31 -255 11 -82 22 -168 24 -190 2 -22 9 -78 15 -125 6 -47 17
-143 25 -215 16 -146 27 -230 50 -390 9 -60 23 -175 30 -255 18 -185 40 -354
53 -405 5 -22 13 -96 16 -164 4 -68 11 -144 16 -170 6 -25 14 -95 20 -154 5
-60 13 -113 16 -119 4 -6 9 -49 11 -96 2 -46 9 -105 14 -131 6 -25 15 -89 20
-141 6 -52 16 -125 24 -161 8 -37 15 -102 15 -145 0 -44 5 -99 11 -124 6 -25
14 -97 19 -160 5 -63 14 -155 20 -205 6 -49 15 -130 21 -180 6 -49 17 -142 25
-205 7 -63 16 -133 19 -155 7 -51 30 -256 51 -450 8 -82 20 -163 26 -180 5
-16 12 -91 15 -165 2 -74 9 -151 15 -170 12 -42 27 -173 32 -285 2 -44 9 -96
15 -115 6 -19 11 -75 11 -124 0 -80 11 -163 40 -296 18 -83 20 -105 27 -225 3
-66 10 -129 16 -139 5 -11 11 -83 13 -160 1 -78 8 -168 15 -201 7 -33 13 -94
13 -135 -1 -60 3 -78 18 -95 15 -16 18 -27 11 -55 -12 -54 -8 -128 11 -205 24
-94 32 -175 17 -175 -23 0 -51 -40 -51 -72 0 -46 7 -52 79 -83 l64 -26 341 -5
c375 -6 540 -5 841 3 110 3 232 5 272 4 39 -1 74 3 77 8 4 5 18 5 36 -2 22 -8
38 -8 60 0 22 8 38 8 59 0 22 -8 36 -8 56 1 17 8 31 9 39 3 14 -11 117 -11
133 1 7 5 14 5 18 -2 3 -5 25 -10 49 -10 23 0 47 -5 54 -12 9 -9 17 -9 34 1
17 9 84 11 253 7 255 -5 248 -5 343 -5 37 0 99 -2 137 -4 65 -4 233 -7 280 -5
11 0 70 0 130 0 61 0 121 -1 135 -1 14 0 94 -1 178 -3 84 -2 160 0 170 3 9 4
32 0 50 -7 25 -10 39 -11 54 -3 13 7 80 9 198 6 113 -3 182 -1 188 5 7 7 12 3
17 -11 7 -23 34 -28 52 -10 17 17 82 18 119 3 27 -12 34 -11 44 2 16 18 47 9
70 -19 14 -16 20 -18 38 -8 12 6 33 9 47 5 20 -5 33 0 51 17 22 20 24 29 18
64 -3 22 -12 47 -20 56 -8 8 -14 23 -14 31 0 9 -7 21 -15 28 -8 7 -15 24 -15
38 0 18 -18 43 -65 87 -36 35 -72 78 -80 98 -8 19 -28 55 -44 79 -16 24 -41
65 -55 92 -14 27 -30 54 -35 60 -5 6 -12 22 -16 36 -4 14 -19 41 -35 60 -15
19 -31 46 -35 60 -4 14 -11 30 -15 35 -4 6 -22 53 -40 105 -17 52 -43 119 -56
148 -13 29 -24 57 -24 62 0 5 -16 42 -36 82 -20 40 -49 102 -66 138 -16 36
-47 101 -68 145 -20 44 -49 105 -63 135 -14 30 -32 78 -38 105 -7 28 -18 57
-24 65 -43 56 -95 204 -115 326 -4 28 -13 61 -19 72 -6 11 -27 71 -46 134 -20
62 -45 136 -55 163 -11 28 -20 63 -20 78 0 15 -9 44 -20 64 -11 21 -20 45 -20
53 0 9 -7 25 -15 36 -8 10 -15 34 -15 52 0 17 -4 32 -9 32 -5 0 -14 20 -20 44
-6 24 -17 49 -26 56 -8 7 -15 27 -15 45 0 18 -7 51 -15 74 -23 67 -85 335 -85
370 0 18 -9 53 -19 79 -13 32 -21 83 -25 159 -4 62 -11 125 -18 140 -6 16 -12
57 -13 93 -2 36 -10 87 -19 113 -9 28 -16 80 -16 125 0 49 -6 87 -15 106 -8
15 -15 47 -15 70 0 22 -7 54 -15 70 -11 21 -17 76 -21 195 -4 105 -11 180 -20
204 -9 23 -14 76 -14 143 0 73 -5 116 -16 142 -19 45 -28 400 -16 667 l7 170
30 8 c17 5 44 13 60 19 17 5 73 11 125 13 113 4 851 3 1245 -2 318 -4 291 -4
723 -4 195 1 331 -3 342 -9 26 -14 66 -12 130 4 38 10 59 11 67 4 7 -6 41 -12
75 -15 34 -2 63 -5 65 -7 8 -8 5 -147 -5 -181 -6 -22 -16 -105 -22 -185 -14
-196 -27 -345 -46 -530 -8 -85 -15 -175 -15 -200 0 -25 -4 -59 -9 -75 -6 -17
-17 -114 -25 -215 -8 -102 -19 -207 -24 -235 -5 -27 -10 -85 -10 -128 -1 -43
-6 -87 -11 -97 -6 -11 -13 -66 -16 -122 -2 -57 -11 -121 -18 -143 -8 -22 -17
-107 -21 -189 -3 -83 -11 -159 -17 -169 -5 -11 -12 -74 -15 -141 -3 -66 -10
-129 -15 -139 -10 -19 -20 -148 -19 -246 0 -29 -4 -62 -10 -73 -14 -26 -40
-225 -33 -253 3 -11 0 -50 -6 -85 -6 -36 -13 -83 -16 -105 -3 -22 -9 -49 -14
-60 -5 -11 -11 -76 -15 -145 -10 -217 -13 -263 -25 -350 -6 -47 -13 -129 -15
-182 -2 -53 -9 -106 -15 -117 -5 -11 -10 -33 -10 -48 0 -15 -4 -75 -10 -132
-5 -57 -7 -108 -4 -113 3 -5 1 -14 -4 -21 -12 -15 -23 -97 -36 -257 -4 -47
-11 -107 -16 -135 -5 -27 -14 -126 -20 -219 -6 -93 -15 -177 -20 -187 -5 -9
-10 -56 -11 -105 -2 -92 -16 -138 -49 -161 -27 -19 -51 -88 -41 -116 11 -29
34 -48 63 -51 13 -2 32 -6 43 -9 11 -4 34 -3 50 2 21 6 39 4 58 -6 23 -12 35
-12 65 -2 30 10 166 13 352 9 8 0 31 2 50 5 19 3 44 6 55 5 11 0 175 -1 365
-3 190 -1 350 -5 356 -9 7 -4 17 -1 23 6 8 10 20 12 39 7 36 -10 223 -4 235 8
6 6 18 4 32 -5 13 -9 44 -14 76 -14 30 1 63 1 74 1 11 -1 41 2 67 5 38 5 49 3
54 -10 7 -18 34 -22 34 -6 0 6 28 10 70 9 39 -1 70 -5 70 -9 0 -15 46 -19 84
-9 26 7 47 7 70 -1 26 -8 39 -7 66 7 42 20 127 18 152 -4 17 -15 20 -15 38 2
19 17 21 17 41 -1 17 -15 23 -16 40 -6 12 8 19 8 19 2 0 -13 228 -8 249 5 18
11 221 15 221 4 0 -17 92 -22 124 -7 30 14 169 18 206 5 40 -14 67 -15 117 -6
37 7 58 7 67 0 11 -10 597 -17 781 -10 59 2 74 2 145 0 19 0 51 -1 70 -2 19 0
44 -1 55 -1 19 -1 224 0 295 0 19 1 62 0 95 0 33 -1 87 -1 120 0 36 0 74 -5
94 -15 26 -12 39 -13 58 -4 18 8 29 9 38 1 9 -8 19 -8 32 -1 10 5 32 14 49 19
25 8 33 7 42 -9 14 -23 39 -24 61 -5 13 11 27 12 66 5 27 -5 56 -7 63 -4 7 3
26 -2 42 -10 66 -34 112 -6 103 63 -4 30 4 54 39 122 24 47 68 119 98 160 30
41 69 96 85 123 17 26 60 96 98 155 37 59 73 116 80 127 6 11 37 58 68 105 30
47 72 115 93 152 20 36 44 72 52 79 8 7 35 56 60 108 25 53 58 121 74 152 17
31 30 65 30 75 0 11 9 25 20 32 11 7 20 18 20 26 0 16 41 108 57 128 6 7 13
26 17 42 4 17 15 41 25 55 10 14 24 43 30 63 7 20 21 48 31 61 19 24 27 25
166 32 133 7 152 10 200 35 29 16 67 31 85 35 18 4 54 16 79 27 25 11 69 26
97 34 29 7 71 25 93 39 22 14 44 25 49 25 5 0 45 29 89 64 44 35 87 66 95 68
28 6 226 199 248 242 12 22 36 58 55 79 19 21 34 48 34 62 0 31 30 96 53 113
9 7 17 23 17 34 0 12 6 29 13 37 19 22 53 120 78 226 11 50 25 96 31 102 6 7
17 43 24 80 8 38 24 81 35 96 11 15 24 52 29 82 5 30 13 62 18 72 6 10 12 53
14 95 3 43 10 83 15 90 6 7 14 45 18 83 4 39 11 84 16 102 14 44 21 170 20
338 0 142 -12 207 -59 319 -24 57 -92 123 -143 136 -23 6 -52 17 -63 25 -12 7
-66 18 -120 25 -95 12 -100 12 -116 -7 -15 -19 -18 -19 -48 -5 -29 14 -37 14
-80 -1 -26 -9 -66 -17 -88 -17 -23 0 -47 -6 -53 -14 -7 -8 -20 -12 -30 -9 -10
3 -22 0 -25 -6 -4 -6 -14 -11 -23 -11 -14 0 -15 13 -10 105 3 57 11 113 16
124 6 11 11 66 12 123 0 57 5 144 10 193 16 153 37 585 33 690 -2 75 1 109 13
137 21 49 13 64 -39 71 -23 4 -63 10 -86 15 -33 7 -51 6 -73 -5 -23 -11 -35
-12 -61 -3 -26 9 -41 8 -72 -2 -33 -12 -47 -12 -95 0 -38 10 -60 11 -71 4 -11
-7 -20 -4 -37 17 -21 26 -21 26 -42 7 -17 -15 -34 -19 -81 -17 -32 1 -69 -3
-80 -9 -16 -9 -25 -9 -33 -1 -16 16 -44 14 -72 -5 -17 -11 -35 -14 -57 -10
-28 6 -171 9 -233 5 -55 -3 -203 10 -226 21 -21 9 -33 9 -64 -4 -22 -10 -42
-13 -49 -7 -20 16 -91 19 -110 5 -19 -14 -105 -12 -128 2 -19 13 -219 6 -245
-7 -18 -10 -28 -10 -45 -1 -20 10 -68 14 -143 12 -142 -3 -524 8 -539 17 -14
7 -26 6 -49 -5 -20 -10 -35 -12 -46 -5 -9 5 -52 8 -96 6 -171 -8 -304 -9 -409
-2 -60 4 -132 4 -160 -1 -28 -4 -55 -5 -61 -1 -8 5 -75 5 -330 2 -16 -1 -147
-1 -290 0 -143 0 -278 0 -300 0 -22 0 -49 0 -60 -2 -11 -1 -33 -1 -50 0 -16 1
-59 3 -95 4 -36 2 -75 9 -88 16 -12 6 -28 8 -35 4 -6 -4 -24 -9 -39 -10 -16
-1 -34 -3 -40 -3 -18 -2 -60 6 -80 15 -9 4 -32 3 -50 -3 -18 -5 -67 -7 -108
-5 -167 8 -481 10 -486 2 -2 -5 -15 -5 -27 0 -12 4 -195 10 -407 11 -803 7
-765 6 -797 25 -27 16 -32 16 -59 2 -23 -12 -47 -14 -104 -9 l-75 7 0 45 c-1
93 15 280 35 415 11 77 23 183 25 235 2 52 12 140 21 195 19 118 30 225 44
430 6 83 15 158 20 167 6 10 10 39 10 65 0 27 4 64 10 83 5 19 11 87 14 150 2
63 9 144 15 179 6 35 13 106 14 157 2 51 8 99 14 106 6 7 14 69 17 138 3 69
10 154 16 190 6 36 15 135 20 220 5 85 14 165 19 176 5 12 13 66 16 120 4 55
12 117 17 139 10 40 14 74 22 211 2 39 8 80 14 90 5 10 12 85 14 166 3 82 10
153 16 160 6 7 14 74 18 148 4 88 12 142 21 157 10 15 14 49 12 115 -1 51 4
116 11 143 7 28 18 118 24 200 7 83 15 157 19 165 3 8 11 76 17 150 5 74 12
155 15 180 3 25 9 92 15 150 6 58 15 139 20 180 6 41 17 147 24 235 8 88 19
178 24 200 6 22 12 83 13 135 1 52 9 111 16 130 10 23 14 74 13 150 -1 63 4
133 10 155 7 22 16 92 21 155 5 63 15 138 23 165 9 28 16 95 17 150 3 174 5
209 17 240 11 30 23 123 43 330 6 61 17 127 25 148 9 23 14 76 14 137 0 111 3
116 65 111 100 -8 138 -11 263 -17 113 -5 136 -4 157 10 30 20 33 59 9 110
-16 33 -16 36 5 69 16 27 21 50 21 106 0 40 5 82 11 94 14 25 22 965 9 987 -4
7 -15 10 -24 7 -9 -4 -16 -3 -16 2 0 5 -17 25 -37 45 l-38 37 -100 -5 c-55 -3
-111 -5 -125 -5 -37 1 -77 0 -155 -5 -100 -7 -372 -7 -421 0 -27 4 -44 2 -49
-6 -5 -8 -11 -6 -20 7 -10 14 -17 15 -36 7 -15 -7 -35 -8 -54 -2 -16 5 -68 6
-115 2 -47 -4 -89 -6 -95 -3 -11 4 -35 5 -843 8 -315 1 -576 0 -580 -3 -5 -3
-51 -1 -103 4 -52 5 -100 10 -106 11 -7 0 -132 0 -277 -1 -197 0 -266 -4 -270
-13 -5 -9 -7 -9 -12 1 -9 19 -94 15 -110 -5 -13 -17 -15 -17 -27 -1 -17 21
-95 29 -312 33 -115 1 -170 6 -173 14 -5 14 -124 15 -138 1 -16 -16 -651 -17
-666 -2 -16 16 -80 15 -102 -1 -13 -9 -45 -12 -110 -9 -50 2 -174 3 -276 2
-217 -3 -380 -1 -505 4 -49 2 -95 -1 -102 -6 -7 -6 -19 -6 -30 0 -10 5 -274 9
-636 9 -339 0 -620 3 -623 6 -4 3 -505 6 -1115 7 l-1108 0 -21 -39z m2165 -23
c39 0 75 -4 80 -8 6 -5 539 -11 1185 -15 694 -4 1182 -11 1193 -16 11 -6 24
-6 37 1 24 13 348 11 356 -2 8 -13 41 -9 53 6 11 12 18 12 57 -1 35 -12 51
-13 72 -4 18 7 38 8 59 2 19 -5 631 -12 1445 -16 1104 -6 1418 -10 1438 -20
19 -10 135 -13 474 -14 246 -1 452 -3 455 -6 4 -2 43 -4 87 -4 151 0 199 -2
210 -12 7 -5 23 -7 37 -4 22 6 27 3 35 -27 5 -18 7 -180 5 -366 -3 -271 -6
-339 -18 -362 -10 -19 -15 -58 -15 -108 0 -51 -5 -90 -15 -108 -10 -19 -15
-58 -15 -116 0 -48 -4 -98 -10 -113 -8 -22 -16 -26 -52 -25 -217 2 -448 -8
-462 -19 -9 -7 -25 -11 -37 -8 -12 3 -33 1 -47 -4 -21 -8 -29 -7 -39 7 -11 16
-81 17 -962 20 -523 1 -955 5 -961 9 -5 3 -20 3 -32 -1 -12 -4 -152 -6 -312
-5 -242 1 -292 3 -306 16 -25 23 -241 21 -281 -2 -25 -15 -34 -15 -79 -4 -44
11 -54 11 -75 -3 -33 -21 -52 -20 -58 4 -5 18 -14 20 -79 20 -41 0 -79 -5 -85
-11 -8 -8 -17 -8 -31 0 -12 6 -78 11 -160 11 -113 0 -142 -3 -152 -15 -11 -14
-15 -14 -29 -1 -14 13 -77 15 -388 17 -204 1 -376 -2 -382 -5 -6 -4 -16 -4
-22 0 -16 9 -417 16 -423 6 -5 -8 -191 -7 -419 3 -91 4 -144 2 -158 -5 -12 -7
-25 -8 -32 -3 -7 5 -75 8 -152 6 -77 -2 -153 -2 -170 -2 -30 2 -302 2 -340 1
-11 -1 -154 -1 -318 -1 -164 0 -302 -3 -308 -6 -5 -4 -25 -1 -44 5 -24 8 -40
8 -53 1 -14 -7 -29 -7 -51 2 -25 9 -36 9 -52 -1 -15 -10 -24 -10 -34 -2 -8 6
-33 8 -67 4 -41 -5 -61 -3 -79 9 -20 13 -49 15 -159 12 -74 -2 -168 -7 -209
-10 -47 -5 -77 -3 -84 4 -17 17 -69 13 -111 -9 -29 -14 -43 -17 -58 -9 -11 6
-97 10 -211 9 -217 0 -211 0 -252 -3 -24 -2 -31 2 -33 21 -4 27 -30 41 -42 22
-5 -8 -23 -13 -42 -12 -18 2 -53 3 -78 4 -34 1 -50 8 -67 27 -12 14 -23 31
-23 36 0 6 -9 27 -20 48 -11 20 -20 46 -20 57 0 10 -16 52 -35 93 -19 41 -35
85 -35 98 0 14 -6 33 -14 44 -7 11 -16 44 -20 74 -4 30 -14 67 -22 82 -7 15
-14 41 -14 56 0 15 -7 46 -15 68 -8 24 -14 79 -15 135 0 52 -4 109 -9 127 -5
18 -5 62 0 109 6 44 10 95 10 116 0 39 16 59 71 87 31 16 103 17 998 13 531
-2 997 -4 1035 -4z m864 -1381 c9 -8 25 -12 36 -10 11 2 74 4 140 4 66 -1 134
3 151 8 17 5 37 5 45 1 8 -4 707 -10 1554 -13 1383 -6 1545 -8 1579 -22 31
-13 44 -14 67 -5 15 7 34 10 41 7 7 -2 24 0 37 5 15 5 28 5 36 -2 9 -7 300
-12 886 -16 1370 -9 1323 -8 1328 -30 4 -22 -27 -209 -39 -239 -16 -37 -11 56
5 109 8 27 15 69 15 92 l0 44 -1092 0 c-996 0 -1093 2 -1110 16 -13 12 -21 14
-30 6 -7 -6 -41 -14 -75 -18 -49 -5 -68 -3 -87 10 -22 14 -174 16 -1558 22
-843 3 -1555 5 -1583 4 -41 -1 -177 -1 -235 1 -8 0 -31 -2 -51 -4 -20 -3 -48
0 -61 8 -17 8 -97 14 -244 19 -120 3 -226 5 -234 5 -60 -6 -1218 -6 -1430 -1
-458 12 -140 17 909 15 830 -2 986 -4 1000 -16z m211 -5174 c57 -225 107 -412
112 -418 4 -5 8 179 8 408 l0 417 220 0 220 0 0 -1075 0 -1075 -222 2 -223 3
-47 185 c-27 102 -71 275 -99 385 -85 334 -78 347 -78 -142 l-1 -433 -200 0
-200 0 0 1075 0 1075 203 0 204 0 103 -407z m1115 395 c4 -12 55 -481 107
-980 12 -115 25 -208 28 -208 3 0 44 269 90 598 l85 597 153 3 c117 2 153 0
157 -10 2 -7 41 -278 85 -603 45 -324 82 -591 84 -592 6 -6 13 54 76 627 34
305 63 561 65 568 3 9 56 12 220 12 l215 0 0 -22 c0 -13 -9 -77 -20 -143 -10
-66 -33 -208 -49 -315 -17 -107 -44 -280 -60 -385 -17 -104 -66 -422 -110
-705 -44 -283 -83 -530 -86 -548 l-6 -32 -197 2 -197 3 -32 195 c-17 107 -54
341 -83 520 -28 179 -54 336 -59 349 -4 16 -24 -89 -60 -315 -29 -187 -67
-431 -85 -544 l-32 -205 -197 -3 c-108 -1 -197 1 -197 5 0 8 -234 1507 -295
1895 -19 120 -35 225 -35 233 0 13 30 15 215 15 164 0 217 -3 220 -12z m2308
-10 c10 -37 67 -360 67 -374 0 -11 -41 -14 -220 -14 l-220 0 0 -664 c0 -596 2
-664 16 -670 9 -3 108 -6 221 -6 l205 0 -6 -37 c-4 -21 -21 -111 -38 -200
l-30 -163 -274 0 c-346 0 -418 14 -478 93 -64 84 -61 34 -61 997 l0 876 25 49
c27 53 94 107 154 124 17 5 167 10 332 10 l302 1 5 -22z m8641 -5313 c31 -43
44 -180 31 -320 -6 -60 -16 -123 -23 -138 -7 -16 -12 -53 -12 -83 0 -42 -8
-71 -35 -125 -19 -39 -35 -82 -35 -95 0 -12 -5 -26 -11 -30 -6 -4 -24 -34 -39
-68 -16 -33 -42 -78 -59 -100 -17 -21 -31 -45 -31 -53 0 -38 -108 -154 -231
-248 -74 -57 -89 -65 -131 -65 -20 0 -38 -4 -40 -9 -7 -18 -90 -63 -100 -53
-10 10 -9 12 26 79 9 17 16 47 16 66 0 24 6 39 22 49 16 11 22 27 26 71 2 31
11 62 18 68 8 6 14 22 14 35 0 13 11 49 25 80 14 31 25 66 25 78 1 20 29 110
41 131 4 6 10 32 13 58 4 26 14 63 22 82 8 19 14 46 14 59 0 14 9 54 19 88 45
148 54 187 62 255 11 98 37 154 91 193 l43 32 109 -4 c106 -5 109 -5 130 -33z"/>
<path d="M25732 30797 c-30 -32 -28 -61 8 -100 16 -17 45 -52 64 -77 85 -110
115 -146 172 -208 34 -37 65 -74 70 -83 10 -18 61 -83 110 -139 17 -19 39 -50
50 -67 10 -18 22 -33 27 -33 4 0 20 -26 34 -57 14 -32 39 -77 55 -100 15 -23
28 -44 28 -47 0 -4 20 -35 45 -70 41 -59 44 -69 44 -124 -1 -33 4 -69 10 -80
15 -29 14 -78 -4 -111 -8 -16 -15 -56 -16 -89 -1 -40 -8 -71 -20 -89 -11 -15
-19 -35 -19 -44 0 -8 -19 -44 -42 -80 -23 -35 -43 -68 -44 -74 0 -5 -2 -17 -3
-25 -1 -12 -3 -13 -10 -1 -7 11 -10 9 -15 -7 -4 -11 -15 -22 -26 -25 -10 -2
-28 -22 -39 -43 -11 -22 -20 -35 -21 -30 0 5 -6 3 -14 -3 -8 -7 -12 -21 -9
-31 4 -15 0 -20 -14 -20 -27 0 -55 -29 -78 -83 -12 -28 -25 -45 -32 -42 -8 2
-13 -4 -13 -14 0 -10 -9 -21 -19 -24 -10 -2 -27 -18 -37 -33 -31 -51 -69 -109
-79 -121 -25 -28 -49 -62 -82 -113 -45 -68 -54 -138 -29 -223 9 -31 14 -67 11
-79 -4 -16 7 -50 34 -103 22 -43 43 -92 46 -107 8 -35 51 -116 75 -143 10 -11
32 -47 49 -80 16 -33 42 -71 56 -85 14 -13 25 -29 25 -35 0 -6 10 -20 23 -32
38 -34 135 -146 176 -203 83 -117 81 -115 178 -111 48 2 103 -2 122 -8 30 -8
49 -7 101 9 52 16 95 20 217 20 97 0 154 4 158 11 4 6 21 9 39 8 87 -5 136 20
136 70 0 33 -55 122 -107 172 -128 124 -153 152 -213 238 -36 51 -71 104 -79
119 -7 15 -21 36 -30 47 -10 11 -35 54 -57 95 l-39 75 1 150 c0 143 2 154 33
245 18 52 39 102 45 110 7 8 25 40 40 70 32 65 68 116 245 349 61 79 121 167
121 176 0 6 14 28 30 49 17 22 30 47 30 57 0 9 6 32 14 50 7 19 21 77 31 130
13 75 14 104 6 135 -6 21 -11 50 -11 63 0 31 -86 201 -147 291 -27 39 -57 84
-68 101 -11 17 -54 71 -95 120 -41 49 -90 111 -108 137 -18 26 -50 65 -71 87
-20 22 -55 65 -78 95 -22 30 -61 76 -86 102 -25 26 -47 53 -49 59 -3 9 -9 8
-25 -1 -18 -12 -30 -11 -80 7 -42 14 -66 17 -83 11 -16 -6 -33 -5 -48 1 -13 6
-50 11 -83 11 -33 0 -70 5 -82 12 -12 6 -51 11 -86 10 -35 -1 -70 3 -77 9 -8
6 -33 10 -56 9 -61 -3 -105 -2 -163 5 -44 5 -53 3 -73 -18z"/>
<path d="M27146 30745 c-4 -11 -13 -14 -30 -9 -21 5 -26 2 -32 -20 -8 -33 2
-72 23 -88 39 -31 123 -121 178 -192 33 -43 65 -83 71 -89 6 -7 19 -25 30 -42
32 -50 104 -143 113 -147 12 -4 101 -115 101 -125 0 -5 12 -25 26 -44 46 -61
84 -150 84 -196 0 -24 6 -59 14 -77 12 -28 12 -38 0 -65 -8 -19 -14 -50 -14
-71 0 -21 -6 -45 -13 -52 -18 -18 -36 -84 -30 -108 3 -11 -2 -31 -11 -45 -9
-13 -16 -37 -16 -52 0 -15 -14 -46 -30 -67 -17 -22 -30 -48 -30 -58 0 -10 -9
-26 -20 -35 -11 -10 -20 -22 -20 -28 0 -5 -16 -27 -35 -48 -19 -21 -35 -44
-35 -51 0 -8 -7 -19 -15 -26 -8 -7 -15 -20 -15 -30 0 -9 -11 -30 -24 -45 -13
-15 -22 -33 -20 -40 3 -7 -11 -33 -30 -59 -20 -25 -36 -50 -36 -55 0 -18 -35
-71 -48 -71 -7 0 -31 -39 -53 -87 -23 -49 -44 -90 -48 -93 -10 -7 -38 -70 -47
-105 -4 -16 -16 -36 -26 -43 -22 -16 -23 -43 -2 -83 9 -17 15 -55 15 -87 0
-50 5 -62 35 -99 19 -23 34 -46 34 -51 0 -5 9 -17 20 -27 11 -10 20 -27 20
-37 0 -10 13 -27 30 -36 16 -9 39 -34 52 -56 13 -21 37 -53 54 -70 17 -17 43
-53 58 -81 32 -61 120 -167 145 -177 11 -4 23 -24 29 -50 8 -30 29 -62 69
-105 32 -34 70 -77 85 -95 l26 -33 294 -4 c479 -6 563 0 590 42 22 35 -3 75
-113 174 -34 30 -46 43 -88 87 -20 21 -69 72 -110 112 -41 41 -86 95 -100 122
-22 39 -31 47 -55 47 -23 1 -32 7 -40 30 -17 45 -56 104 -76 115 -10 5 -24 27
-31 47 -6 20 -22 55 -35 77 -71 126 -68 113 -57 243 17 181 25 207 116 342 27
40 58 93 68 117 11 24 31 56 44 73 14 16 32 46 41 67 9 20 40 63 70 94 53 55
74 98 74 148 0 13 7 30 15 38 8 9 15 25 15 37 0 12 6 42 14 67 50 161 50 158
51 344 0 177 -1 182 -27 239 -15 31 -33 57 -40 57 -12 0 -78 135 -78 158 0 6
-13 20 -30 32 -16 12 -30 27 -30 35 0 7 -15 34 -34 58 -19 25 -42 59 -50 75
-9 17 -30 45 -47 64 -17 18 -38 47 -46 63 -39 82 -97 162 -145 202 -29 23 -58
43 -64 43 -6 0 -22 -9 -36 -20 -19 -15 -28 -16 -37 -7 -13 13 -143 18 -443 18
-136 0 -167 2 -172 14 -7 20 -32 19 -40 0z"/>
<path d="M28546 30715 c-11 -8 -27 -15 -36 -15 -9 0 -31 -7 -48 -15 l-31 -16
23 -33 c12 -19 29 -48 36 -65 7 -17 17 -31 22 -31 5 0 14 -14 20 -31 6 -17 21
-34 33 -39 13 -5 25 -20 28 -37 4 -15 22 -45 42 -67 19 -21 35 -41 35 -45 0
-4 17 -24 37 -45 27 -27 37 -47 38 -69 0 -27 4 -33 30 -37 23 -4 31 -11 33
-30 2 -14 8 -30 13 -36 13 -16 59 -107 59 -117 0 -5 13 -27 30 -50 16 -23 32
-56 35 -72 2 -17 9 -56 15 -87 7 -38 7 -65 0 -83 -5 -14 -10 -46 -10 -70 0
-31 -12 -69 -39 -125 -24 -50 -37 -89 -33 -102 3 -14 1 -19 -6 -14 -8 5 -14
-7 -18 -34 -4 -22 -10 -40 -14 -40 -14 0 -60 -107 -60 -139 0 -38 -27 -94 -40
-86 -6 4 -10 -3 -10 -14 0 -25 -9 -27 -25 -5 -10 14 -15 11 -38 -29 -15 -25
-27 -49 -27 -53 0 -4 -8 -13 -17 -20 -15 -11 -16 -16 -5 -33 14 -24 16 -71 3
-71 -5 0 -13 9 -16 21 -10 29 -29 18 -37 -22 -7 -39 -64 -209 -84 -254 -20
-45 -22 -227 -2 -257 8 -13 18 -39 22 -58 5 -32 50 -112 84 -150 29 -35 82
-110 82 -118 0 -5 12 -19 26 -33 14 -13 32 -36 40 -51 8 -15 23 -29 34 -33 11
-4 29 -24 40 -45 11 -21 29 -41 40 -45 11 -3 20 -11 20 -16 0 -6 26 -37 58
-69 88 -89 206 -228 219 -259 16 -37 117 -127 172 -153 48 -22 31 -21 439 -29
103 -2 146 -7 154 -16 9 -11 15 -11 33 1 12 8 48 16 81 17 90 4 94 6 94 49 0
32 -7 45 -45 81 -24 23 -47 55 -50 71 -4 15 -18 36 -33 46 -49 33 -198 192
-227 243 -9 16 -84 95 -158 167 -16 15 -35 42 -44 61 -8 18 -23 36 -34 38 -13
4 -18 11 -14 21 5 13 3 13 -11 1 -14 -12 -19 -10 -39 15 -13 16 -26 44 -30 63
-6 33 -30 54 -52 46 -9 -3 -13 6 -13 28 0 18 -6 40 -14 48 -8 9 -33 51 -55 93
l-41 76 16 69 c16 66 59 187 73 208 4 6 18 38 30 72 13 34 29 68 37 74 8 6 14
17 14 24 0 11 19 60 56 142 8 17 14 34 14 37 0 3 13 28 30 56 16 28 32 61 36
75 3 13 12 29 20 36 8 6 14 19 14 29 0 10 6 23 14 29 8 7 17 24 21 39 3 15 19
43 34 62 65 83 68 94 67 240 -1 98 -5 147 -17 180 -15 40 -23 71 -46 183 -3
15 -16 36 -29 46 -13 10 -24 23 -24 28 0 9 -82 116 -117 153 -37 40 -53 65
-53 84 0 12 -10 36 -23 55 -12 19 -27 42 -32 52 -6 9 -25 31 -43 47 -18 17
-32 39 -32 50 0 11 -11 27 -25 36 -14 9 -25 24 -25 34 0 10 -9 25 -20 35 -11
9 -20 23 -20 31 0 8 -11 17 -24 20 -14 3 -26 13 -28 22 -4 21 -71 44 -92 32
-9 -5 -23 -4 -35 4 -16 10 -23 9 -39 -5 -17 -15 -39 -18 -148 -17 -71 0 -138
0 -149 0 -38 -1 -105 12 -111 21 -8 13 -36 10 -58 -6z"/>
<path d="M24111 18418 c-17 -73 -39 -171 -50 -218 -10 -47 -37 -164 -59 -260
-22 -96 -61 -267 -87 -380 -25 -113 -118 -520 -206 -905 -88 -385 -182 -797
-209 -915 -27 -118 -79 -345 -115 -505 -36 -159 -75 -330 -86 -380 -11 -49
-23 -98 -25 -107 -5 -17 13 -18 280 -18 l284 0 16 68 c8 37 40 184 71 327 30
143 66 303 78 355 l22 95 430 0 429 0 23 -110 c31 -155 143 -724 143 -730 0
-3 128 -5 285 -5 157 0 285 2 285 4 0 2 -29 133 -66 292 -36 159 -85 377 -109
484 -24 107 -83 366 -130 575 -48 209 -102 448 -120 530 -19 83 -81 359 -139
615 -58 256 -124 546 -146 645 -22 99 -65 289 -95 421 -30 133 -55 245 -55
248 0 3 -139 6 -309 6 l-309 0 -31 -132z m377 -950 c17 -84 74 -364 127 -623
53 -258 109 -537 126 -620 16 -82 33 -160 36 -172 l5 -23 -336 0 -336 0 5 23
c6 26 131 638 241 1185 49 240 82 382 89 382 7 0 24 -61 43 -152z"/>
<path d="M21032 16633 l3 -1898 395 1 c437 1 534 9 750 65 244 64 411 154 576
312 137 131 234 303 276 490 26 118 27 325 3 442 -56 270 -215 479 -477 629
-27 15 -48 23 -48 19 0 -4 -4 -3 -8 4 -4 7 -41 27 -81 45 l-73 34 73 39 c189
103 356 261 439 417 58 109 80 193 87 323 13 264 -86 476 -317 676 -147 126
-304 205 -515 258 -139 34 -248 41 -673 41 l-412 0 2 -1897z m903 1417 c225
-57 368 -195 410 -395 42 -201 -12 -416 -137 -543 -28 -29 -55 -52 -60 -52 -5
0 -6 -5 -3 -10 4 -6 3 -9 -2 -8 -4 2 -33 -11 -63 -29 -93 -53 -209 -83 -342
-90 l-118 -6 0 583 0 583 118 -6 c65 -3 153 -15 197 -27z m50 -1609 c44 -10
84 -17 89 -14 5 4 6 2 3 -4 -3 -5 26 -25 66 -44 141 -67 263 -227 303 -396 21
-89 20 -268 -1 -347 -55 -209 -219 -364 -441 -420 -73 -19 -222 -36 -316 -36
l-68 0 0 646 0 647 143 -6 c88 -4 172 -13 222 -26z"/>
<path d="M26010 16630 l0 -1900 295 0 295 0 -2 850 -3 851 21 5 c31 8 142 -15
188 -38 61 -31 153 -125 197 -200 71 -120 189 -443 273 -743 60 -217 196 -714
196 -720 0 -3 140 -5 311 -5 291 0 310 1 305 18 -3 9 -55 197 -115 417 -172
628 -224 783 -339 1013 -52 104 -134 243 -166 279 -6 7 -27 32 -46 56 -32 39
-109 109 -153 140 -17 12 -14 16 35 49 200 132 328 300 388 508 17 57 23 112
27 227 6 178 -6 280 -48 406 -32 97 -102 233 -118 230 -6 -2 -8 3 -5 10 7 19
-135 167 -215 226 -120 87 -249 143 -411 179 -157 35 -250 42 -587 42 l-323 0
0 -1900z m735 1436 c169 -37 286 -136 340 -286 46 -128 60 -370 29 -517 -49
-239 -210 -373 -446 -373 l-68 0 0 595 0 595 43 0 c23 -1 69 -7 102 -14z"/>
<path d="M22649 13206 c-232 -64 -503 -311 -525 -478 -4 -31 0 -53 14 -80 l19
-37 -38 -27 c-53 -37 -133 -123 -157 -170 -70 -136 -31 -285 91 -351 52 -29
258 -25 357 5 171 54 327 149 366 223 27 52 11 159 -23 159 -8 0 -31 -13 -51
-29 -20 -16 -77 -52 -126 -80 -215 -122 -436 -190 -479 -146 -75 74 127 281
407 416 118 57 146 85 154 155 7 63 -10 65 -126 16 -53 -23 -116 -48 -140 -56
-45 -16 -118 -24 -128 -14 -18 18 84 133 186 208 67 49 214 130 237 130 10 0
11 -15 6 -60 -8 -77 11 -142 52 -186 33 -35 71 -44 93 -22 7 7 12 44 12 97 0
46 5 124 11 173 13 102 7 116 -66 149 -46 21 -81 22 -146 5z"/>
<path d="M23827 13125 c-14 -13 -77 -174 -77 -195 0 -19 -25 -22 -159 -21
-127 2 -139 0 -156 -19 -15 -16 -17 -26 -9 -48 14 -41 56 -56 172 -60 56 -2
102 -7 102 -10 0 -3 -32 -116 -72 -251 -107 -369 -127 -450 -128 -514 0 -110
48 -154 150 -135 72 13 97 27 170 94 87 81 260 346 260 399 0 22 -27 30 -55
15 -14 -7 -72 -77 -130 -155 -100 -135 -210 -255 -234 -255 -18 0 -12 53 19
174 30 117 180 578 200 615 7 14 21 21 40 21 42 0 229 37 306 61 57 18 65 23
62 42 -3 22 -6 22 -180 25 -105 1 -178 6 -178 12 0 5 6 27 14 47 35 94 29 121
-34 153 -47 24 -64 25 -83 5z"/>
<path d="M27160 12958 c-14 -6 -95 -13 -180 -16 -160 -5 -174 -9 -164 -47 3
-12 -11 -65 -30 -119 -40 -110 -44 -141 -20 -175 16 -22 21 -23 78 -15 114 14
207 -2 232 -42 42 -64 -60 -199 -236 -313 -60 -39 -120 -54 -120 -31 0 25 53
112 106 174 51 60 56 69 42 82 -35 36 -168 -41 -222 -129 -37 -61 -42 -150
-10 -193 35 -48 70 -67 128 -72 46 -4 65 0 118 25 132 63 243 167 294 278 33
71 39 123 20 187 -30 104 -116 170 -240 184 -60 7 -61 9 -47 48 10 24 12 24
83 19 88 -6 174 21 226 73 64 63 26 118 -58 82z"/>
<path d="M24947 12949 c-61 -10 -133 -52 -152 -89 -21 -41 -20 -97 3 -109 14
-7 28 -2 61 20 50 33 92 47 172 55 110 12 98 -8 -141 -251 -198 -202 -226
-237 -291 -365 -38 -74 -40 -83 -29 -111 16 -37 49 -46 101 -25 59 24 231 32
350 16 112 -15 126 -10 107 39 -26 71 -109 111 -248 120 l-95 6 190 195 c137
140 198 210 218 249 51 104 28 184 -66 226 -63 28 -116 35 -180 24z"/>
<path d="M25760 12951 c-131 -40 -260 -179 -260 -280 0 -21 -10 -47 -26 -68
-76 -100 -116 -256 -95 -371 22 -121 84 -179 182 -170 214 21 449 353 449 635
0 117 -47 211 -127 252 -24 12 -85 13 -123 2z m114 -133 c32 -122 -75 -392
-218 -545 -64 -69 -100 -93 -140 -93 -50 0 -48 109 4 234 43 102 52 113 82 99
42 -19 51 -4 43 74 -6 60 -4 76 14 111 32 62 138 140 192 142 9 0 19 -10 23
-22z"/>
<path d="M26380 12916 c-231 -103 -232 -104 -214 -154 13 -38 55 -45 121 -22
50 18 54 18 47 2 -4 -9 -39 -109 -77 -222 -70 -205 -70 -205 -70 -315 -1 -134
21 -192 60 -167 7 4 37 93 67 197 30 105 93 292 140 418 47 125 86 236 86 247
0 23 -34 60 -52 59 -7 0 -56 -20 -108 -43z"/>
<path d="M23135 12651 c-71 -43 -124 -136 -125 -216 0 -47 5 -62 53 -145 l18
-31 -60 -65 c-79 -86 -111 -151 -111 -223 0 -95 53 -155 134 -153 82 1 154 55
220 166 48 80 62 151 43 216 l-15 51 71 36 c101 50 127 70 127 98 0 44 -28 43
-177 -8 l-92 -32 -35 40 c-42 47 -52 78 -40 114 15 40 34 31 56 -26 21 -57 60
-96 92 -91 18 3 21 10 20 43 -2 71 -21 206 -30 214 -13 12 -74 31 -98 31 -12
0 -35 -8 -51 -19z"/>
<path d="M44275 42527 c-33 -15 -95 -81 -95 -100 0 -7 154 -93 342 -192 188
-99 375 -198 416 -219 71 -38 75 -39 88 -21 7 10 16 38 20 62 14 91 -49 179
-196 276 -83 54 -287 156 -365 183 -69 23 -172 28 -210 11z"/>
<path d="M44040 41508 c43 -42 272 -208 280 -203 12 7 50 79 50 94 0 8 -77 35
-330 119 -13 4 -13 3 0 -10z"/>
<path d="M42832 39900 c-27 -12 -44 -53 -36 -87 11 -41 112 -141 208 -204 344
-227 682 -311 678 -170 -2 91 -168 229 -427 356 -71 35 -159 74 -195 86 -73
24 -193 34 -228 19z"/>
<path d="M38192 31140 c-27 -12 -44 -53 -36 -87 11 -41 110 -139 208 -204 116
-78 348 -192 446 -218 179 -50 270 -10 220 95 -26 52 -104 126 -208 195 -91
60 -311 169 -402 200 -72 24 -193 34 -228 19z"/>
<path d="M37699 30206 c-115 -66 60 -246 401 -415 266 -132 453 -149 453 -43
0 91 -187 244 -455 372 -57 27 -132 59 -168 71 -83 28 -195 35 -231 15z"/>
<path d="M34723 24503 c-36 -20 -87 -83 -76 -93 5 -4 79 -44 166 -89 l157 -82
12 28 c36 88 -2 172 -103 222 -71 35 -110 39 -156 14z"/>
<path d="M34273 23653 c-36 -20 -87 -83 -76 -93 5 -4 78 -44 164 -88 l157 -82
10 28 c23 57 24 80 4 125 -21 47 -54 75 -124 107 -54 24 -94 25 -135 3z"/>
<path d="M34051 22638 c81 -70 271 -208 279 -203 12 7 50 79 50 94 0 5 -71 33
-157 62 -203 67 -192 64 -172 47z"/>
<path d="M33337 21942 c-15 -16 -7 -22 132 -95 82 -42 153 -77 160 -77 19 0
12 45 -12 81 -32 48 -153 109 -216 109 -33 0 -53 -5 -64 -18z"/>
<path d="M31550 17908 c41 -41 272 -208 281 -203 11 7 49 80 49 94 0 8 -77 35
-330 119 -13 4 -13 3 0 -10z"/>
<path d="M28772 13340 c-28 -12 -44 -53 -35 -88 9 -39 125 -150 218 -212 109
-71 344 -185 435 -209 179 -50 270 -10 220 95 -26 52 -103 124 -207 194 -93
61 -312 171 -403 201 -73 24 -193 34 -228 19z"/>
<path d="M27137 10212 c-15 -16 -6 -22 144 -100 l159 -83 0 29 c0 49 -39 94
-119 135 -83 43 -156 50 -184 19z"/>
<path d="M26753 9453 c-18 -10 -44 -33 -58 -52 -30 -42 -43 -30 157 -135 147
-77 148 -77 157 -54 22 58 22 87 3 131 -21 47 -54 75 -124 107 -54 24 -94 25
-135 3z"/>
</g>
</svg>
